<svg width="78" height="76" viewBox="0 0 78 76" fill="none" xmlns="http://www.w3.org/2000/svg">
<path d="M76.05 66.5008H66.3V16.8411C66.3 12.7947 63.676 9.50083 60.45 9.50083H46.8V19.0008H58.5V76.0008H76.05C77.1274 76.0008 78 74.938 78 73.6258V68.8758C78 67.5637 77.1274 66.5008 76.05 66.5008ZM38.0542 0.150754L14.6543 7.53404C12.9175 8.08177 11.7 10.0501 11.7 12.3093V66.5008H1.95C0.872625 66.5008 0 67.5637 0 68.8758V73.6258C0 74.938 0.872625 76.0008 1.95 76.0008H42.9V4.92599C42.9 1.72271 40.5161 -0.627059 38.0542 0.150754ZM32.175 42.7508C30.5602 42.7508 29.25 40.6237 29.25 38.0008C29.25 35.3779 30.5602 33.2508 32.175 33.2508C33.7898 33.2508 35.1 35.3779 35.1 38.0008C35.1 40.6237 33.7898 42.7508 32.175 42.7508Z" fill="white"/>
</svg>
