<svg xmlns="http://www.w3.org/2000/svg" viewBox="0 0 5456.16 3523.92"><defs><style>.cls-1{fill:#fff;}.cls-2{fill:#cecece;}.cls-3{fill:#e0e0e0;}.cls-4{fill:#ededed;}.cls-5{fill:#939393;}.cls-6{fill:#9e9e9e;}.cls-37,.cls-7{fill:#020202;}.cls-7{opacity:0.08;}.cls-8{fill:#777;}.cls-9{fill:#bfbfbf;}.cls-10{fill:#e6e7e9;}.cls-11{fill:#b8b9bb;}.cls-12{fill:#fefcfe;}.cls-13{fill:#42210b;}.cls-14{fill:#6b3e1f;}.cls-15{fill:#1b1f21;}.cls-16{fill:#475059;}.cls-17{fill:#f9f9f7;}.cls-18{fill:#f4ba2e;}.cls-19{fill:#ffdb92;}.cls-20{fill:#ffcc5a;}.cls-21{fill:#2d3538;}.cls-22{fill:#cecfd1;}.cls-23,.cls-25{fill:#231f20;}.cls-23{opacity:0.15;}.cls-24{fill:#f6f4f4;}.cls-25{opacity:0.2;}.cls-26{fill:#dedede;}.cls-27{fill:#3a4349;}.cls-28{fill:#252b2d;}.cls-29{fill:#414a51;}.cls-30{fill:#323b3f;}.cls-31{fill:#8e6040;}.cls-32{fill:#512d10;}.cls-33{fill:#eaeaea;}.cls-34{fill:#b2b2b2;}.cls-35{fill:#848484;}.cls-36{fill:#3f4d50;}.cls-37{opacity:0.26;}.cls-38{fill:#edbe85;}.cls-39{fill:#fff2e6;}.cls-40{fill:#e2e2e2;}.cls-41{fill:#31373a;}</style></defs><g id="Camada_2" data-name="Camada 2"><g id="Layer_5" data-name="Layer 5"><rect class="cls-1" x="1184.08" y="2687.18" width="14" height="168.72" transform="translate(4206.59 2689.01) rotate(111.69)"/><rect class="cls-2" x="1109.41" y="2737.36" width="14" height="8.97" transform="translate(-1843.91 2765.98) rotate(-68.31)"/><rect class="cls-1" x="1070.64" y="2706.91" width="43.45" height="50.93" rx="1.9" transform="translate(4034.99 2727.08) rotate(111.69)"/><rect class="cls-1" x="982.04" y="2645.81" width="75.15" height="115.85" rx="10.51" transform="translate(3908.75 2755.47) rotate(111.69)"/><path class="cls-3" d="M1053.66,2758.92a12.46,12.46,0,0,1-4.61-.89l-88.12-35a12.53,12.53,0,0,1-7-16.25l20-50.29a12.53,12.53,0,0,1,16.25-7l88.12,35a12.53,12.53,0,0,1,7,16.25l-20,50.29A12.54,12.54,0,0,1,1053.66,2758.92Zm-68.09-106.36a8.54,8.54,0,0,0-3.38.71,8.44,8.44,0,0,0-4.55,4.65l-20,50.3a8.54,8.54,0,0,0,4.77,11.05l88.12,35.05a8.52,8.52,0,0,0,11-4.77l20-50.29a8.52,8.52,0,0,0-4.76-11.05l-88.12-35.05A8.49,8.49,0,0,0,985.57,2652.56Z"/><rect class="cls-4" x="384.36" y="2142.11" width="451.97" height="797.72" rx="47.41" transform="translate(-1976.31 2169.09) rotate(-68.31)"/><rect class="cls-5" x="398.5" y="2230.83" width="426.22" height="621" transform="translate(-1975.84 2170.5) rotate(-68.31)"/><path class="cls-6" d="M955.19,2613.74l-43.9,110.38a6.68,6.68,0,0,0,3.75,8.69h0a6.69,6.69,0,0,0,8.69-3.74l43.9-110.38a6.7,6.7,0,0,0-3.75-8.7h0A6.7,6.7,0,0,0,955.19,2613.74Z"/><path class="cls-7" d="M1020.57,2460.75,367.43,2201a47.53,47.53,0,0,0-61.6,26.7l-18,45.17,681.26,445.3,77.79-195.74A47.42,47.42,0,0,0,1020.57,2460.75Z"/><rect class="cls-3" x="1019.57" y="2680.38" width="14.08" height="51.17" transform="translate(-1867.18 2659.91) rotate(-68.31)"/><path class="cls-1" d="M550.17,3117.34c15.57-27.5,39-49.39,62-69,12.44-10.57,25.67-21.28,40-30.65A186.37,186.37,0,0,1,664,2963.38c11.41-30.82,29.69-59,46.07-82.47,14.94-21.42,33-45.38,58.6-58.6,25.23-13,57.63-15.24,91.22-6.21,18.1,4.87,36.18,13.34,53.67,21.54,11,5.17,21.42,10.05,31.78,14.06,45.06,17.47,91.66,35.54,140,42.67,37.38,5.52,91.89,6.35,139.31-21,24.45-14.11,44.12-33.83,63.62-55.42l-30.72-12.43,5.24-13,35.38,14.31,3.58-4.05c18.67-21.12,38-43,60.84-60.38,11.63-8.86,29.49-20.61,50.26-20.38,22.88.26,44.47,16.08,52.48,38.46,7.49,20.91,2.69,46-12.21,63.84-13.87,16.63-35.85,26.74-58.81,27.05-22.56.31-44-8.34-62.82-16L1302,2823.52c-20.81,23.24-42.9,46.08-70.42,62-50.91,29.37-108.77,28.58-148.35,22.73-49.9-7.36-97.24-25.72-143-43.47-10.8-4.18-21.91-9.4-32.66-14.43-16.93-7.94-34.44-16.15-51.35-20.7-30.22-8.12-59-6.3-81.17,5.13-22.74,11.75-38.92,33.2-53.53,54.17-16.68,23.9-33.6,50.06-44.43,79.32a178.32,178.32,0,0,0-10,40.6q5.56-3.06,11.36-5.75c19.42-9,49.21-18.27,80.89-11.37,29.4,6.41,54.06,27.12,62.83,52.77a72.93,72.93,0,0,1-13.2,69.59c-21.36,25.12-60.52,33.29-93.13,19.41-28.82-12.27-51.82-40.92-60-74.79a134.33,134.33,0,0,1-3.53-24c-10.9,7.68-21.19,16.08-31,24.41-22,18.72-44.42,39.58-58.91,65.17-15.57,27.5-19.4,57.18-10.51,81.41,1.4,3.81,3.11,7.53,4.93,11.46,2.82,6.12,5.74,12.45,7.5,19.4,3,11.72,2.18,27.64-9,37.21l-9.09-10.65c6.33-5.4,6.4-15.82,4.55-23.11-1.46-5.7-4-11.18-6.66-17-1.85-4-3.76-8.16-5.35-12.5-8.43-23-7.17-49.85,3.18-75.87A140.11,140.11,0,0,1,550.17,3117.34ZM808.9,3049c-7.22-21.11-27.85-38.24-52.57-43.62-27.87-6.08-54.54,2.3-72,10.39a186.85,186.85,0,0,0-18.3,9.82,124.58,124.58,0,0,0,3.37,29.79c7.19,29.65,27.08,54.64,51.92,65.21,26.67,11.35,59.76,4.65,77-15.6a56.63,56.63,0,0,0,9.4-15.71A58.62,58.62,0,0,0,808.9,3049Zm643.21-283.81c-6-16.72-22.58-29-39.46-29.18-12.52-.14-25.75,5.42-41.62,17.52-21.77,16.58-40.61,37.9-58.83,58.51l-.3.35,24.8,10c17.64,7.14,37.64,15.23,57.38,15,18.93-.26,37-8.49,48.24-22a53.94,53.94,0,0,0,8.67-14.6C1455.57,2789.26,1456.13,2776.44,1452.11,2765.21Z"/><path class="cls-1" d="M658.49,3440.6c-42.88-9.23-73.37-23.39-95.93-44.55-28-26.28-40.57-64.59-32-96.65-3,2.28-6,4.49-9,6.64a546,546,0,0,1-191.42,87.11l-3.21-13.63a531.91,531.91,0,0,0,186.47-84.86c18.42-13.22,38.09-28.91,38.15-47.65l14-.75c1.72,15.46-4.72,25.49-10.94,35.2-3.54,5.52-7.2,11.23-9.5,18.22-10.53,32.08,6,66.39,27.12,86.16,20.63,19.35,49,32.4,89.29,41.07Z"/><ellipse class="cls-8" cx="218.83" cy="3353.12" rx="61.39" ry="12.76" transform="translate(-1224.15 318.47) rotate(-21.7)"/><path class="cls-1" d="M169.54,3366.89c-12.75,4-20.43,26.5-7.3,35.43a281.48,281.48,0,0,0,41.24,22.9l-23.68,9.42c-6.5,2.58-9.37,10.28-6.66,17.09l.53,1.33c2.71,6.81,10,10.27,16.51,7.68l167.1-66.49-10.39-26.1-69.34,27.59c1.62-5.29,10.08-33.31,12.63-40.64a22.26,22.26,0,0,0-1.1-17.55,21.68,21.68,0,0,0-5.55-6.41c-5.18-4-12.53-5.95-17.84-2.51C248.78,3339.6,183.71,3362.43,169.54,3366.89Z"/><path class="cls-9" d="M361.5,3326.61h28.36a0,0,0,0,1,0,0v84.1a6.3,6.3,0,0,1-6.3,6.3H367.8a6.3,6.3,0,0,1-6.3-6.3v-84.1A0,0,0,0,1,361.5,3326.61Z" transform="translate(-2618.36 4967.43) rotate(-111.7)"/><ellipse class="cls-8" cx="807.9" cy="3415.44" rx="12.76" ry="61.39" transform="translate(-2664.23 2903.41) rotate(-68.3)"/><path class="cls-1" d="M857.2,3429.21c12.75,4,20.43,26.5,7.29,35.43a280.62,280.62,0,0,1-41.23,22.89l23.68,9.42c6.5,2.59,9.37,10.28,6.66,17.1l-.53,1.33c-2.71,6.81-10,10.26-16.52,7.68l-167.09-66.49,10.38-26.1,69.35,27.59c-1.62-5.3-10.08-33.31-12.63-40.65a22.24,22.24,0,0,1,1.1-17.54,21.72,21.72,0,0,1,5.55-6.42c5.18-4,12.52-5.94,17.84-2.5C778,3401.92,843,3424.74,857.2,3429.21Z"/><path class="cls-9" d="M643.18,3388.93h15.76a6.3,6.3,0,0,1,6.3,6.3v84.1a0,0,0,0,1,0,0H636.87a0,0,0,0,1,0,0v-84.1A6.3,6.3,0,0,1,643.18,3388.93Z" transform="translate(-2780.46 2769.45) rotate(-68.3)"/></g><g id="Layer_6" data-name="Layer 6"><path class="cls-10" d="M2425.35,2966.66a394.26,394.26,0,0,1-4.08,56.5c-27.36,188.06-189.26,332.42-384.83,332.42-5.66,0-11.23-.15-16.81-.37-207-8.77-372.19-179.37-372.19-388.55,0-214.83,174.17-388.92,389-388.92S2425.35,2751.83,2425.35,2966.66Z"/><path class="cls-1" d="M2036.44,2566.59c-220.63,0-400.15,179.45-400.15,400.07,0,215.05,168.14,390.63,382.9,399.7,4.16.15,8.32.3,12.49.3l-11.38-11.45-11.74-11.82c-197.21-14.2-350-177.59-350-376.73,0-208.29,169.48-377.77,377.85-377.77s377.76,169.48,377.76,377.77a371.13,371.13,0,0,1-2.75,45.42l10,10,9.75,9.74c.44-2.31.74-4.61,1.11-7a402.31,402.31,0,0,0,4.24-58.13C2436.51,2746,2257.06,2566.59,2036.44,2566.59Z"/><path class="cls-6" d="M2431.16,3031.78c-31.3,191.41-199.82,334.95-394.72,334.95-1.64,0-3.2,0-4.76-.07l-11.38-11.45-11.74-11.82c3.79.3,7.66.52,11.52.67,5.43.22,10.85.37,16.36.37,186.35,0,347-138.78,373.82-322.91.45-3.12.9-6.32,1.19-9.44l10,10Z"/><path class="cls-11" d="M2411.45,3012.08c-.29,3.12-.74,6.32-1.19,9.44-26.83,184.13-187.47,322.91-373.82,322.91-5.51,0-10.93-.15-16.36-.37-3.86-.15-7.73-.37-11.52-.67l-342.31-345.58,552.83-177.59Z"/><path class="cls-12" d="M1679.33,2937.3h129.37a5.26,5.26,0,0,1,5.26,5.26v54.9a.38.38,0,0,1-.38.38h-135a29.89,29.89,0,0,1-29.89-29.89v0A30.65,30.65,0,0,1,1679.33,2937.3Z"/><circle class="cls-12" cx="2036.41" cy="2966.66" r="233" transform="translate(-1501.3 2308.88) rotate(-45)"/><path class="cls-13" d="M2228.66,2966.66c0,106.23-86.08,192.31-192.22,192.31a192.43,192.43,0,0,1-192.31-192.31c0-106.22,86.08-192.3,192.31-192.3a192.33,192.33,0,0,1,192.22,192.3Z"/><path class="cls-14" d="M2228.66,2966.66c0,106.23-86.08,192.31-192.22,192.31a191.71,191.71,0,0,1-149.27-71.14,190.72,190.72,0,0,1-20.89-87.12c0-106.15,86.08-192.31,192.23-192.31a191.73,191.73,0,0,1,149.27,71.14A190.71,190.71,0,0,1,2228.66,2966.66Z"/></g><g id="Layer_7" data-name="Layer 7"><path class="cls-12" d="M2825,907l-476.84,414.46L1654.24,523.11l476.83-414.46a68.72,68.72,0,0,1,96.95,6.79l37.47,43.1,1.54,1.77,35.47,40.81,1.54,1.77,33.92,39,1.54,1.77,33.93,39,1.54,1.77,33.93,39,1.54,1.78,421.35,484.77a67.4,67.4,0,0,1,7.87,11.11c.41.69.8,1.4,1.16,2.1A68.73,68.73,0,0,1,2825,907Z"/><path class="cls-15" d="M1732.25,521.49c6.46,7.43,6.93,17.59,1,22.7s-15.88,3.23-22.34-4.2-6.93-17.59-1-22.7S1725.79,514.06,1732.25,521.49Z"/><path class="cls-15" d="M1805.08,605.28c6.46,7.43,6.93,17.6,1.05,22.71s-15.88,3.22-22.34-4.21-6.93-17.59-1-22.7S1798.62,597.85,1805.08,605.28Z"/><path class="cls-15" d="M1873.58,686.79c6.46,7.43,6.93,17.6,1.05,22.71s-15.88,3.23-22.34-4.2-6.93-17.6-1-22.71S1867.12,679.36,1873.58,686.79Z"/><path class="cls-15" d="M1949.52,767.88c6.46,7.43,6.93,17.6,1,22.71s-15.88,3.22-22.34-4.21-6.93-17.59-1-22.7S1943.06,760.45,1949.52,767.88Z"/><path class="cls-15" d="M2019.36,848.23c6.46,7.43,6.93,17.6,1.05,22.71s-15.88,3.23-22.34-4.21-6.93-17.59-1-22.7S2012.9,840.8,2019.36,848.23Z"/><path class="cls-15" d="M2089.2,928.58c6.46,7.43,6.93,17.6,1.05,22.71s-15.88,3.23-22.34-4.2-6.93-17.6-1-22.71S2082.74,921.15,2089.2,928.58Z"/><path class="cls-15" d="M2159,1008.93c6.46,7.43,6.93,17.6,1.05,22.71s-15.88,3.23-22.34-4.2-6.93-17.6-1.05-22.71S2152.58,1001.5,2159,1008.93Z"/><ellipse class="cls-15" cx="2224.4" cy="1105.63" rx="14.1" ry="17.83" transform="translate(-179.78 1730.38) rotate(-41)"/><path class="cls-15" d="M2306.43,1178.5c6.46,7.43,6.93,17.6,1.05,22.71s-15.88,3.23-22.34-4.2-6.93-17.6-1-22.71S2300,1171.07,2306.43,1178.5Z"/><path class="cls-16" d="M1725.18,521.41,1652,585a3.39,3.39,0,0,1-4.76-.34h0a3.39,3.39,0,0,1,.33-4.77l73.19-63.61a3.37,3.37,0,0,1,4.76.34h0A3.38,3.38,0,0,1,1725.18,521.41Z"/><path class="cls-16" d="M1736.09,535.3l-73.19,63.62a3.39,3.39,0,0,1-4.76-.34h0a3.39,3.39,0,0,1,.33-4.77l73.19-63.61a3.37,3.37,0,0,1,4.76.34h0A3.38,3.38,0,0,1,1736.09,535.3Z"/><path class="cls-16" d="M1797.52,605l-73.18,63.61a3.39,3.39,0,0,1-4.77-.33h0a3.39,3.39,0,0,1,.33-4.77l73.19-63.61a3.38,3.38,0,0,1,4.76.33h0A3.39,3.39,0,0,1,1797.52,605Z"/><path class="cls-16" d="M1808.75,617.87l-73.19,63.61a3.39,3.39,0,0,1-4.77-.33h0a3.39,3.39,0,0,1,.34-4.77l73.18-63.61a3.39,3.39,0,0,1,4.77.34h0A3.38,3.38,0,0,1,1808.75,617.87Z"/><path class="cls-16" d="M1866,686.61l-73.19,63.62a3.39,3.39,0,0,1-4.76-.34h0a3.39,3.39,0,0,1,.33-4.77l73.18-63.61a3.39,3.39,0,0,1,4.77.34h0A3.38,3.38,0,0,1,1866,686.61Z"/><path class="cls-16" d="M1877.21,699.48,1804,763.09a3.37,3.37,0,0,1-4.76-.34h0a3.38,3.38,0,0,1,.33-4.76l73.18-63.61a3.39,3.39,0,0,1,4.77.33h0A3.39,3.39,0,0,1,1877.21,699.48Z"/><path class="cls-16" d="M1941.91,767.63l-73.18,63.62a3.4,3.4,0,0,1-4.77-.34h0a3.39,3.39,0,0,1,.34-4.77l73.18-63.61a3.39,3.39,0,0,1,4.77.34h0A3.37,3.37,0,0,1,1941.91,767.63Z"/><path class="cls-16" d="M1953.09,780.5l-73.18,63.61a3.39,3.39,0,0,1-4.77-.34h0a3.37,3.37,0,0,1,.34-4.76l73.18-63.61a3.39,3.39,0,0,1,4.77.33h0A3.39,3.39,0,0,1,1953.09,780.5Z"/><path class="cls-16" d="M2011.79,848l-73.19,63.61a3.38,3.38,0,0,1-4.76-.33h0a3.39,3.39,0,0,1,.33-4.77l73.19-63.61a3.38,3.38,0,0,1,4.76.33h0A3.39,3.39,0,0,1,2011.79,848Z"/><path class="cls-16" d="M2023,860.83l-73.19,63.61a3.38,3.38,0,0,1-4.76-.33h0a3.39,3.39,0,0,1,.33-4.77l73.19-63.61a3.37,3.37,0,0,1,4.76.34h0A3.38,3.38,0,0,1,2023,860.83Z"/><path class="cls-16" d="M2081.74,928.36,2008.55,992a3.39,3.39,0,0,1-4.77-.34h0a3.37,3.37,0,0,1,.34-4.76l73.18-63.61a3.39,3.39,0,0,1,4.77.33h0A3.39,3.39,0,0,1,2081.74,928.36Z"/><path class="cls-16" d="M2092.92,941.22l-73.19,63.61a3.39,3.39,0,0,1-4.77-.33h0a3.39,3.39,0,0,1,.34-4.77l73.18-63.61a3.39,3.39,0,0,1,4.77.33h0A3.39,3.39,0,0,1,2092.92,941.22Z"/><path class="cls-16" d="M2151.5,1008.68l-73.18,63.61a3.39,3.39,0,0,1-4.77-.33h0a3.39,3.39,0,0,1,.33-4.77l73.19-63.61a3.38,3.38,0,0,1,4.76.33h0A3.39,3.39,0,0,1,2151.5,1008.68Z"/><path class="cls-16" d="M2162.68,1021.54l-73.18,63.61a3.39,3.39,0,0,1-4.77-.33h0a3.39,3.39,0,0,1,.33-4.77l73.19-63.61a3.37,3.37,0,0,1,4.76.34h0A3.38,3.38,0,0,1,2162.68,1021.54Z"/><path class="cls-16" d="M2227.5,1096.12l-73.18,63.61a3.39,3.39,0,0,1-4.77-.33h0a3.39,3.39,0,0,1,.33-4.77l73.19-63.61a3.38,3.38,0,0,1,4.76.33h0A3.39,3.39,0,0,1,2227.5,1096.12Z"/><path class="cls-16" d="M2238.68,1109l-73.18,63.62a3.4,3.4,0,0,1-4.77-.34h0a3.39,3.39,0,0,1,.33-4.77l73.19-63.61a3.37,3.37,0,0,1,4.76.34h0A3.38,3.38,0,0,1,2238.68,1109Z"/><path class="cls-16" d="M2298.78,1178.32l-73.19,63.61a3.38,3.38,0,0,1-4.76-.33h0a3.39,3.39,0,0,1,.33-4.77l73.18-63.61a3.39,3.39,0,0,1,4.77.33h0A3.39,3.39,0,0,1,2298.78,1178.32Z"/><path class="cls-16" d="M2310,1191.18l-73.19,63.61a3.38,3.38,0,0,1-4.76-.33h0a3.39,3.39,0,0,1,.33-4.77l73.18-63.61a3.39,3.39,0,0,1,4.77.34h0A3.38,3.38,0,0,1,2310,1191.18Z"/><rect class="cls-15" x="1689.27" y="430.37" width="699.82" height="2.35" transform="translate(217.01 1443.57) rotate(-41)"/><rect class="cls-15" x="1652.26" y="387.79" width="699.81" height="2.35" transform="translate(235.86 1408.83) rotate(-41)"/><rect class="cls-15" x="1619.87" y="350.53" width="699.81" height="2.35" transform="translate(252.36 1378.46) rotate(-41)"/><rect class="cls-15" x="1724.74" y="471.18" width="699.81" height="2.35" transform="translate(198.93 1476.83) rotate(-41)"/><rect class="cls-15" x="1760.2" y="511.98" width="699.81" height="2.35" transform="translate(180.86 1510.1) rotate(-41)"/><rect class="cls-15" x="1795.67" y="552.79" width="699.81" height="2.35" transform="translate(162.79 1543.38) rotate(-41)"/><rect class="cls-15" x="1831.05" y="593.37" width="700.5" height="2.35" transform="translate(144.94 1576.78) rotate(-41)"/><rect class="cls-15" x="1866.52" y="634.18" width="700.5" height="2.35" transform="translate(126.86 1610.05) rotate(-41)"/><rect class="cls-15" x="1900.45" y="673.21" width="700.5" height="2.35" transform="translate(109.58 1641.88) rotate(-41)"/><rect class="cls-15" x="1937.46" y="715.79" width="700.5" height="2.35" transform="translate(90.72 1676.6) rotate(-41)"/><rect class="cls-15" x="1971.38" y="754.82" width="700.5" height="2.35" transform="translate(73.44 1708.43) rotate(-41)"/><rect class="cls-15" x="2005.31" y="793.85" width="700.5" height="2.35" transform="translate(56.15 1740.26) rotate(-41)"/><rect class="cls-15" x="2042.32" y="836.43" width="700.5" height="2.35" transform="translate(37.3 1774.98) rotate(-41)"/><rect class="cls-15" x="2080.87" y="880.79" width="700.5" height="2.35" transform="translate(17.65 1811.15) rotate(-41)"/><rect class="cls-15" x="2117.88" y="923.37" width="700.5" height="2.35" transform="translate(-1.2 1845.87) rotate(-41)"/><rect class="cls-15" x="2153.35" y="964.17" width="700.5" height="2.35" transform="translate(-19.27 1879.14) rotate(-41)"/><rect class="cls-15" x="2190.36" y="1006.75" width="700.5" height="2.35" transform="translate(-38.13 1913.87) rotate(-41)"/><path class="cls-15" d="M2840.82,823.29,2314,1281.17l-1.55-1.77,527.17-458.21C2840.07,821.88,2840.46,822.59,2840.82,823.29Z"/></g><g id="Layer_4" data-name="Layer 4"><rect class="cls-17" x="279.67" y="116.48" width="642.11" height="764.66" transform="translate(707.49 1272.3) rotate(-137.56)"/><rect class="cls-17" x="3604.1" y="1095.5" width="642.11" height="764.66" transform="translate(3747.35 -2712.54) rotate(66.94)"/><path class="cls-18" d="M964.23,105.69,887.35,543.55c-.47,2.69,2.67,5.49,7,6.25l41.94,7.36c4.34.76,8.24-.79,8.72-3.49l76.87-437.86a2.87,2.87,0,0,0,0-1.13l-57.25-10.05A2.8,2.8,0,0,0,964.23,105.69Z"/><path class="cls-19" d="M919.26,554.17l17,3c4.34.76,8.24-.79,8.72-3.49l76.87-437.86a2.87,2.87,0,0,0,0-1.13l-17-3a3.06,3.06,0,0,1,0,.85,1.35,1.35,0,0,1,0,.28L928,550.68C927.51,553.38,923.6,554.93,919.26,554.17Z"/><path class="cls-20" d="M984.54,109.25,907.66,547.12c-.47,2.69.39,5.08,1.92,5.35l14.78,2.6c1.52.26,3.15-1.69,3.62-4.39l76.87-437.86a1.35,1.35,0,0,0,0-.28,7.52,7.52,0,0,0,.09-.83l-20.18-3.54C984.7,108.52,984.61,108.88,984.54,109.25Z"/><path class="cls-4" d="M1021.9,114.69s-8.76-99-12-99.73-45.27,89.67-45.27,89.67Z"/><path class="cls-21" d="M1015.39,49.24s-3.61-35-5.34-35c-2.15,0-17,31-17,31Z"/><path class="cls-22" d="M2735,1624.41a58.72,58.72,0,0,0-78.32,26.89l-177.09,362.29a58.72,58.72,0,0,0,26.9,78.32l502.75,245.74a58.73,58.73,0,0,0,78.32-26.89l177.08-362.3a58.73,58.73,0,0,0-26.89-78.32Z"/><path class="cls-23" d="M2684.57,2179l-210.74-150.28c.42-5.53,5.8-15.36,8.5-20.8l84.86-170s157.73-216.92,158.34-217.66l201.65,103.69,315.34,210.85-4.11,10.16L2737.53,2204.4Z"/><path class="cls-24" d="M2822.78,1618.15a58.73,58.73,0,0,0-82,11.77L2499.1,1952.71a58.72,58.72,0,0,0,11.78,82l447.92,335.42a58.72,58.72,0,0,0,82-11.77l241.71-322.78a58.73,58.73,0,0,0-11.77-82Z"/><path class="cls-25" d="M3079.87,2293.37l-107.82-69.83s-12.61-12-24.16,2.07-50.27,99.52-50.27,99.52Z"/><path class="cls-26" d="M3085.67,2297.58,2990,2228.13s-12.61-12-24.16,2.07-68.67,94.6-68.67,94.6Z"/><path class="cls-23" d="M2812.63,2138.4A8.12,8.12,0,0,1,2811,2127l185.58-248.09a8.12,8.12,0,0,1,11.36-1.6h0a8.12,8.12,0,0,1,1.6,11.36L2824,2136.79a8.12,8.12,0,0,1-11.36,1.61Z"/><path class="cls-23" d="M2840.29,2046.17a8.12,8.12,0,0,1-1.6-11.36l131.75-174.89a8.11,8.11,0,0,1,11.36-1.6h0a8.11,8.11,0,0,1,1.6,11.36l-131.75,174.89a8.11,8.11,0,0,1-11.36,1.6Z"/><path class="cls-23" d="M2757.42,2098.27a8.12,8.12,0,0,1-1.6-11.36l185.58-248.1a8.11,8.11,0,0,1,11.36-1.59h0a8.11,8.11,0,0,1,1.6,11.36l-185.58,248.09a8.12,8.12,0,0,1-11.36,1.6Z"/><path class="cls-23" d="M2798.25,1978.74a8.12,8.12,0,0,1-1.6-11.37l113.8-151.06a8.11,8.11,0,0,1,11.36-1.6h0a8.11,8.11,0,0,1,1.59,11.36l-113.79,151.06a8.11,8.11,0,0,1-11.36,1.61Z"/><path class="cls-23" d="M2747.67,1986.23a8.12,8.12,0,0,1-1.59-11.37l135.33-179.65a8.11,8.11,0,0,1,11.36-1.6h0a8.12,8.12,0,0,1,1.6,11.36L2759,1984.62a8.12,8.12,0,0,1-11.36,1.61Z"/><path class="cls-23" d="M2666.09,2031.88a8.1,8.1,0,0,1-1.6-11.36l185.58-248.09a8.11,8.11,0,0,1,11.36-1.6h0a8.12,8.12,0,0,1,1.6,11.36l-185.59,248.09a8.1,8.1,0,0,1-11.35,1.6Z"/><path class="cls-23" d="M2637.66,2011.22a8.11,8.11,0,0,1-1.6-11.36l185.59-248.09a8.1,8.1,0,0,1,11.35-1.6h0a8.11,8.11,0,0,1,1.6,11.36L2649,2009.62a8.11,8.11,0,0,1-11.36,1.6Z"/><path class="cls-21" d="M3380.78,2127.9l-90.65,435.21c-.56,2.68,2.49,5.57,6.8,6.47l41.69,8.68c4.31.9,8.26-.53,8.82-3.21l90.65-435.21a2.91,2.91,0,0,0,0-1.14l-56.9-11.85A2.82,2.82,0,0,0,3380.78,2127.9Z"/><path class="cls-16" d="M3321.68,2574.74l16.94,3.52c4.31.9,8.26-.53,8.82-3.21l90.65-435.21a2.91,2.91,0,0,0,0-1.14l-16.93-3.52a3,3,0,0,1,0,.85,1.35,1.35,0,0,1,0,.28l-90.65,435.21C3330,2574.2,3326,2575.63,3321.68,2574.74Z"/><path class="cls-27" d="M3401,2132.1l-90.65,435.22c-.56,2.68.22,5.1,1.74,5.41l14.69,3.06c1.51.32,3.2-1.59,3.76-4.27l90.65-435.21a1.35,1.35,0,0,0,0-.28,7.72,7.72,0,0,0,.12-.82l-20.06-4.18C3401.15,2131.37,3401.05,2131.73,3401,2132.1Z"/><path class="cls-14" d="M3438.13,2138.71s-5.63-99.27-8.86-100.06-48.08,88.2-48.08,88.2Z"/><path class="cls-24" d="M3433.69,2073.09s-2.5-35.1-4.23-35.18c-2.15-.11-18,30.41-18,30.41Z"/><path class="cls-28" d="M3125.23,2071.4l256.2,363.31c1.58,2.24,5.77,2,9.37-.56l34.8-24.54c3.6-2.53,5.25-6.4,3.68-8.64l-256.2-363.31a2.91,2.91,0,0,0-.82-.78l-47.49,33.49A2.74,2.74,0,0,0,3125.23,2071.4Z"/><path class="cls-29" d="M3411.46,2419.58l14.14-10c3.6-2.53,5.25-6.4,3.68-8.64l-256.2-363.31a2.91,2.91,0,0,0-.82-.78l-14.13,10a3.52,3.52,0,0,1,.64.57l.17.22,256.2,363.31C3416.72,2413.18,3415.06,2417,3411.46,2419.58Z"/><path class="cls-30" d="M3142.09,2059.52l256.19,363.31c1.58,2.23,3.89,3.31,5.15,2.42l12.26-8.65c1.27-.89,1-3.42-.55-5.66l-256.2-363.31-.17-.22a8.22,8.22,0,0,0-.52-.65l-16.75,11.81A10.63,10.63,0,0,0,3142.09,2059.52Z"/><path class="cls-31" d="M3172.29,2036.87s-76.4-63.65-79.18-61.82,31.64,95.34,31.64,95.34Z"/><path class="cls-30" d="M3121.29,1995.32s-27.35-22.13-28.59-20.92c-1.55,1.5,10,33.9,10,33.9Z"/></g><g id="Layer_2" data-name="Layer 2"><path class="cls-27" d="M4140.69,907.68c-7.82,24.75-296.9,300-572.36,534.88-285.57,243.52-1003,632.86-1003,632.86C2070,2273.52,1267.6,2368.13,1267.6,2368.13l-508.74-10.84,9.83-862.47,1319.68,30.83c214.86-139.86,770.9-285.13,922.25-344.44,24.74-9.69,38.74-15.07,38.74-15.07,74.84-64.14,171.08-67.92,223.81-97.3,71.69-39.94,141.42-68.41,202.1-123.66,57.74-52.59,145.51-81.95,208.24-121,92.74-57.75,156.06-115.92,192.47-132.59,12.08-5.53,18.85-8.42,18.85-8.42C4151.3,690.25,4140.69,907.68,4140.69,907.68Z"/><path class="cls-15" d="M3876,691.59C3618.47,950.2,2694.51,1745.51,2694.51,1745.51l-10.18-343.33c24.74-9.7,383.32-251,383.32-251,96.86-51,242.16-130.87,295.86-162,104.06-60.27,276.91-158.15,351-202Z"/><path class="cls-16" d="M4505.32,1950.37l-285.14-49.61s-713.46-172.89-991.48-204.11c0,0-673.53-84.66-907-104.83,0,0-1294.39-59.4-1483.07-73.55L728,982.53l503.48-251.28s561.06,96.58,1135.77,207.59c456.91,88.26,922.45,185.66,1121.54,250.89l519.81,172.71c56,18.62,298.95,107.8,361.55,145.72,40.32,24.43,89,20.16,141,96,0,0,102.93,58.36,169,166.85,0,0,55.61-13.87,58,23.86S4639.75,1950.37,4505.32,1950.37Z"/><path class="cls-15" d="M4802.76,385.19c0,216.61-223.12,309.48-338.16,343a581,581,0,0,0-144.17,64.09l-142.05,88.21s-10.61-207-238.78-228.17l393.34-329,86.61-72.44c63.3-55.49,167.34-108,247.37-81.84,37.59,12.28,73.85,34.51,99.43,73.29h0C4788.59,276,4802.76,322.2,4802.76,385.19Z"/><path class="cls-32" d="M547.45,2412.57s268.44,51.57,280.33-10.53C961.5,1704.13,842.17,689.4,842.17,689.4l-349.1,26.77Z"/><path class="cls-21" d="M4511.09,1604.2C3895.24,1276.87,2344,1024.69,2344,1024.69l23.23-85.85c456.91,88.26,922.45,185.66,1121.54,250.89l519.81,172.71c56,18.62,293.66,96.36,359,129.42C4426.07,1521.5,4497.2,1574.85,4511.09,1604.2Z"/><rect class="cls-33" x="736.85" y="1010.73" width="1542.31" height="1077.72" rx="73.87" transform="translate(3057.59 41.58) rotate(90)"/><rect class="cls-34" x="1028.33" y="1269.83" width="1350.22" height="552.82" rx="27.92" transform="translate(3249.68 -157.21) rotate(90)"/><rect class="cls-9" x="946.06" y="1368.48" width="502.93" height="365.19" rx="19.17" transform="translate(2748.61 353.55) rotate(90)"/><rect class="cls-1" x="1884.83" y="912.92" width="83.76" height="51.19" rx="14.05" transform="translate(2865.22 -988.2) rotate(90)"/><rect class="cls-1" x="1884.83" y="1006.77" width="83.76" height="51.19" rx="14.05" transform="translate(2959.08 -894.34) rotate(90)"/><rect class="cls-1" x="1884.83" y="1100.63" width="83.76" height="51.19" rx="14.05" transform="translate(3052.93 -800.49) rotate(90)"/><rect class="cls-1" x="1884.83" y="1194.49" width="83.76" height="51.19" rx="14.05" transform="translate(3146.79 -706.63) rotate(90)"/><rect class="cls-1" x="1884.83" y="1288.35" width="83.76" height="51.19" rx="14.05" transform="translate(3240.65 -612.77) rotate(90)"/><rect class="cls-1" x="1884.83" y="1382.21" width="83.76" height="51.19" rx="14.05" transform="translate(3334.51 -518.91) rotate(90)"/><rect class="cls-1" x="1884.83" y="1476.06" width="83.76" height="51.19" rx="14.05" transform="translate(3428.37 -425.05) rotate(90)"/><rect class="cls-1" x="1884.83" y="1569.92" width="83.76" height="51.19" rx="14.05" transform="translate(3522.23 -331.2) rotate(90)"/><rect class="cls-1" x="1884.83" y="1663.78" width="83.76" height="51.19" rx="14.05" transform="translate(3616.08 -237.34) rotate(90)"/><rect class="cls-1" x="1884.83" y="1757.64" width="83.76" height="51.19" rx="14.05" transform="translate(3709.94 -143.48) rotate(90)"/><rect class="cls-1" x="1884.83" y="1851.5" width="83.76" height="51.19" rx="14.05" transform="translate(3803.8 -49.62) rotate(90)"/><rect class="cls-1" x="1884.83" y="1945.35" width="83.76" height="51.19" rx="14.05" transform="translate(3897.66 44.24) rotate(90)"/><rect class="cls-1" x="1884.83" y="2039.21" width="83.76" height="51.19" rx="14.05" transform="translate(3991.52 138.1) rotate(90)"/><rect class="cls-1" x="1884.83" y="2133.07" width="83.76" height="51.19" rx="14.05" transform="translate(4085.37 231.95) rotate(90)"/><rect class="cls-1" x="1817.5" y="899.61" width="75.94" height="75.94" rx="3.14" transform="translate(2793.05 -917.89) rotate(90)"/><rect class="cls-1" x="1729.55" y="1037.35" width="75.94" height="75.94" rx="3.14" transform="translate(2842.84 -692.21) rotate(90)"/><rect class="cls-1" x="1641.61" y="1057.63" width="75.94" height="75.94" rx="3.14" transform="translate(2775.19 -583.97) rotate(90)"/><rect class="cls-1" x="1553.66" y="1104.91" width="75.94" height="75.94" rx="3.14" transform="translate(2734.52 -448.75) rotate(90)"/><rect class="cls-1" x="1460.91" y="894.77" width="75.94" height="85.62" rx="3.34" transform="translate(2436.46 -561.3) rotate(90)"/><rect class="cls-1" x="1460.91" y="987.28" width="75.94" height="85.62" rx="3.34" transform="translate(2528.97 -468.79) rotate(90)"/><rect class="cls-1" x="1460.91" y="1076.99" width="75.94" height="85.62" rx="3.34" transform="translate(2618.68 -379.08) rotate(90)"/><rect class="cls-1" x="1449.37" y="1178.99" width="99.02" height="85.62" rx="3.81" transform="translate(2720.69 -277.08) rotate(90)"/><rect class="cls-1" x="1449.37" y="1741.3" width="99.02" height="85.62" rx="3.81" transform="translate(3283 285.23) rotate(90)"/><rect class="cls-1" x="1461.42" y="1845.4" width="74.92" height="85.62" rx="3.31" transform="translate(3387.09 389.33) rotate(90)"/><rect class="cls-1" x="1279.99" y="1461.92" width="437.79" height="85.62" rx="8.01" transform="translate(3003.61 5.85) rotate(90)"/><rect class="cls-1" x="1553.66" y="1195.37" width="75.94" height="75.94" rx="3.14" transform="translate(2824.98 -358.29) rotate(90)"/><rect class="cls-1" x="1553.66" y="1285.83" width="75.94" height="75.94" rx="3.14" transform="translate(2915.44 -267.83) rotate(90)"/><rect class="cls-1" x="1553.66" y="1376.3" width="75.94" height="75.94" rx="3.14" transform="translate(3005.9 -177.37) rotate(90)"/><rect class="cls-1" x="1553.66" y="1466.76" width="75.94" height="75.94" rx="3.14" transform="translate(3096.36 -86.91) rotate(90)"/><rect class="cls-1" x="1553.66" y="1557.22" width="75.94" height="75.94" rx="3.14" transform="translate(3186.83 3.55) rotate(90)"/><rect class="cls-1" x="1553.66" y="1647.68" width="75.94" height="75.94" rx="3.14" transform="translate(3277.29 94.02) rotate(90)"/><rect class="cls-1" x="1553.66" y="1738.14" width="75.94" height="75.94" rx="3.14" transform="translate(3367.75 184.48) rotate(90)"/><rect class="cls-1" x="1553.66" y="1828.6" width="75.94" height="75.94" rx="3.14" transform="translate(3458.21 274.94) rotate(90)"/><rect class="cls-1" x="1438.15" y="1955.5" width="77.34" height="44.11" rx="12.19" transform="translate(3454.38 500.73) rotate(90)"/><rect class="cls-1" x="1438.15" y="2046.24" width="77.34" height="44.11" rx="12.19" transform="translate(3545.12 591.47) rotate(90)"/><rect class="cls-1" x="1487.6" y="2046.24" width="77.34" height="44.11" rx="12.19" transform="translate(3594.57 542.02) rotate(90)"/><rect class="cls-1" x="1438.15" y="2136.98" width="77.34" height="44.11" rx="12.19" transform="translate(3635.86 682.21) rotate(90)"/><rect class="cls-1" x="1641.61" y="1148.93" width="75.94" height="75.94" rx="3.14" transform="translate(2866.48 -492.68) rotate(90)"/><rect class="cls-1" x="1641.61" y="1240.23" width="75.94" height="75.94" rx="3.14" transform="translate(2957.78 -401.38) rotate(90)"/><rect class="cls-1" x="1641.61" y="1331.53" width="75.94" height="75.94" rx="3.14" transform="translate(3049.08 -310.08) rotate(90)"/><rect class="cls-1" x="1641.61" y="1422.27" width="75.94" height="75.94" rx="3.14" transform="translate(3139.82 -219.34) rotate(90)"/><rect class="cls-1" x="1641.61" y="1513.57" width="75.94" height="75.94" rx="3.14" transform="translate(3231.12 -128.04) rotate(90)"/><rect class="cls-1" x="1641.61" y="1600.96" width="75.94" height="75.94" rx="3.14" transform="translate(3318.51 -40.65) rotate(90)"/><rect class="cls-1" x="1641.61" y="1691.42" width="75.94" height="75.94" rx="3.14" transform="translate(3408.97 49.81) rotate(90)"/><rect class="cls-1" x="1641.61" y="1781.88" width="75.94" height="75.94" rx="3.14" transform="translate(3499.43 140.27) rotate(90)"/><rect class="cls-1" x="1641.61" y="1871.78" width="75.94" height="75.94" rx="3.14" transform="translate(3589.34 230.18) rotate(90)"/><rect class="cls-1" x="1641.61" y="1961.69" width="75.94" height="75.94" rx="3.14" transform="translate(3679.24 320.08) rotate(90)"/><rect class="cls-1" x="1553.66" y="1918.18" width="75.94" height="75.94" rx="3.14" transform="translate(3547.79 364.51) rotate(90)"/><rect class="cls-1" x="1608.01" y="2088.54" width="143.14" height="75.94" rx="4.31" transform="translate(3806.09 446.93) rotate(90)"/><rect class="cls-1" x="1496.47" y="2064.95" width="190.32" height="75.94" rx="4.97" transform="translate(3694.55 511.28) rotate(90)"/><rect class="cls-1" x="1607.27" y="933.95" width="144.63" height="75.94" rx="4.33" transform="translate(2651.5 -707.66) rotate(90)"/><rect class="cls-1" x="1495.13" y="956.66" width="193.02" height="75.94" rx="5.01" transform="translate(2586.26 -597.01) rotate(90)"/><rect class="cls-1" x="1729.55" y="1128.18" width="75.94" height="75.94" rx="3.14" transform="translate(2933.67 -601.37) rotate(90)"/><rect class="cls-1" x="1729.55" y="1218.45" width="75.94" height="75.94" rx="3.14" transform="translate(3023.95 -511.1) rotate(90)"/><rect class="cls-1" x="1729.55" y="1309.29" width="75.94" height="75.94" rx="3.14" transform="translate(3114.78 -420.26) rotate(90)"/><rect class="cls-1" x="1729.55" y="1400.12" width="75.94" height="75.94" rx="3.14" transform="translate(3205.62 -329.43) rotate(90)"/><rect class="cls-1" x="1729.55" y="1490.4" width="75.94" height="75.94" rx="3.14" transform="translate(3295.89 -239.16) rotate(90)"/><rect class="cls-1" x="1729.55" y="1578.62" width="75.94" height="75.94" rx="3.14" transform="translate(3384.12 -150.93) rotate(90)"/><rect class="cls-1" x="1729.55" y="1670.2" width="75.94" height="75.94" rx="3.14" transform="translate(3475.7 -59.35) rotate(90)"/><rect class="cls-1" x="1729.55" y="1760.66" width="75.94" height="75.94" rx="3.14" transform="translate(3566.16 31.11) rotate(90)"/><rect class="cls-1" x="1729.55" y="1849.63" width="75.94" height="75.94" rx="3.14" transform="translate(3655.13 120.08) rotate(90)"/><rect class="cls-1" x="1729.55" y="1942.33" width="75.94" height="75.94" rx="3.14" transform="translate(3747.82 212.78) rotate(90)"/><rect class="cls-1" x="1729.55" y="2030.93" width="75.94" height="75.94" rx="3.14" transform="translate(3836.42 301.38) rotate(90)"/><rect class="cls-1" x="1729.55" y="2122.14" width="75.94" height="75.94" rx="3.14" transform="translate(3927.63 392.58) rotate(90)"/><rect class="cls-1" x="1817.5" y="991.74" width="75.94" height="75.94" rx="3.14" transform="translate(2885.18 -825.75) rotate(90)"/><rect class="cls-1" x="1817.5" y="1081.09" width="75.94" height="75.94" rx="3.14" transform="translate(2974.53 -736.41) rotate(90)"/><rect class="cls-1" x="1817.5" y="1172.67" width="75.94" height="75.94" rx="3.14" transform="translate(3066.1 -644.83) rotate(90)"/><rect class="cls-1" x="1817.5" y="1261.96" width="75.94" height="75.94" rx="3.14" transform="translate(3155.4 -555.53) rotate(90)"/><rect class="cls-1" x="1817.5" y="1354.05" width="75.94" height="75.94" rx="3.14" transform="translate(3247.49 -463.44) rotate(90)"/><rect class="cls-1" x="1817.5" y="1442.56" width="75.94" height="75.94" rx="3.14" transform="translate(3336 -374.94) rotate(90)"/><rect class="cls-1" x="1817.5" y="1534.51" width="75.94" height="75.94" rx="3.14" transform="translate(3427.95 -282.99) rotate(90)"/><rect class="cls-1" x="1817.5" y="1623.85" width="75.94" height="75.94" rx="3.14" transform="translate(3517.29 -193.64) rotate(90)"/><rect class="cls-1" x="1817.5" y="1715.62" width="75.94" height="75.94" rx="3.14" transform="translate(3609.06 -101.88) rotate(90)"/><rect class="cls-1" x="1817.5" y="1807.2" width="75.94" height="75.94" rx="3.14" transform="translate(3700.64 -10.3) rotate(90)"/><rect class="cls-1" x="1817.5" y="1897.84" width="75.94" height="75.94" rx="3.14" transform="translate(3791.28 80.35) rotate(90)"/><rect class="cls-1" x="1817.5" y="1984.95" width="75.94" height="75.94" rx="3.14" transform="translate(3878.39 167.46) rotate(90)"/><rect class="cls-1" x="1794.65" y="2098.26" width="121.64" height="75.94" rx="8.73" transform="translate(3991.7 280.77) rotate(90)"/><path class="cls-1" d="M1715.43,922.45h104.19a8.73,8.73,0,0,1,8.73,8.73v58.49a8.73,8.73,0,0,1-8.73,8.73H1715.43a8.72,8.72,0,0,1-8.72-8.72V931.18A8.73,8.73,0,0,1,1715.43,922.45Z" transform="translate(2727.95 -807.1) rotate(90)"/><rect class="cls-35" x="1430.09" y="1531.07" width="1221.09" height="32.45" rx="7.47" transform="translate(3587.93 -493.33) rotate(90)"/><path class="cls-33" d="M2056.85,2278V816.68c0-13.43,8.33-26,20.29-30.64l595.17-229.61c6.09-2.35,12,1.53,12,7.86V2527.08c0,7.3-6.85,11.79-13.87,9.11l-592.16-225.94C2065.68,2305.43,2056.85,2292.13,2056.85,2278Z"/><path class="cls-35" d="M2685.14,2540.13l-.81-1985.53s13.55,10.59,19.75,17.36,15.8,24,15.8,24V2493.85s-12.25,19.35-15.8,23.89S2685.14,2540.13,2685.14,2540.13Z"/><polygon class="cls-36" points="2121.46 2275.18 2121.46 824.62 2649.46 634.82 2649.46 2463.89 2121.46 2275.18"/><path class="cls-9" d="M1419.86,1541.3H2640.95a0,0,0,0,1,0,0v4.57a7.42,7.42,0,0,1-7.42,7.42H1427.24a7.38,7.38,0,0,1-7.38-7.38v-4.61A0,0,0,0,1,1419.86,1541.3Z" transform="translate(3577.7 -483.11) rotate(90)"/><path class="cls-14" d="M.11,2646.67V389.87L242,425.9,557.13,551.41c0,3.66,62.83,105.38,118.36,292.85,50.68,171.09,95.28,413.61,80.5,718.18,0,0,20.65,316.82-160.12,894.55Z"/><path class="cls-37" d="M878,2148.12l19.76-5.12s-1.7-55.29,21.49-78.19c0,0,187.49-195.12,221.23-224.57,0,0,64.53-14.76,55.61,52.46,0,0,2.91,12.17-11.24,29.62l-70.17,78.21,319.64-94.6a60.11,60.11,0,0,1,31.74-.84c13.68,3.44,29.28,12.55,35.18,35.49,0,0,3.57,12.41-5,28.2-7.39,13.58-20.32,18.1-35.12,22.55l-250,85.32,285.25-79c15.83-4.63,45.08-10.44,58.78-1.24,11.69,7.86,21.54,25.51,21.46,44,0,0-2.41,32-40.8,47l-273,85.05,225.73-56.86c18.16-5,61.91-14.65,75.13,3.59,3.54,4.89,5.59,12.11,6.93,19.1,0,0,11.34,24-21.43,45.21-5.67,3.67-22.75,10.06-29.22,12L1274.63,2276l168.19-43.6c17.48-5.08,38.54-5.09,49.61,9.35a36.25,36.25,0,0,1,7.38,17.2s8.94,36.61-36.58,51.32L1163.12,2389l-68.72,14.17a185.17,185.17,0,0,1-55.52,3.11c-13-1.28-27.23-4.1-40.36-9.78,0,0-26.47-10.26-28.89-17.25l-25.48,8.05Z"/><path class="cls-38" d="M879.53,2158.26l19.77-5.12s-1.71-55.29,21.48-78.19c0,0,187.5-195.13,221.23-224.57,0,0,64.53-14.76,55.61,52.45,0,0,2.91,12.17-11.23,29.63l-70.17,78.21,319.63-94.61a60.15,60.15,0,0,1,31.75-.83c13.67,3.44,29.27,12.55,35.17,35.49,0,0,3.57,12.41-5,28.2-7.4,13.57-20.32,18.1-35.13,22.54l-250,85.33,285.25-79c15.84-4.64,45.09-10.44,58.78-1.24,11.7,7.86,21.54,25.51,21.47,44,0,0-2.41,32-40.8,47l-273,85,225.74-56.86c18.16-5,61.9-14.65,75.12,3.59,3.54,4.89,5.59,12.11,6.93,19.1,0,0,11.34,24-21.43,45.21-5.67,3.67-22.75,10.05-29.22,12l-245.33,80.49,168.2-43.61c17.47-5.07,38.53-5.08,49.6,9.36a36.21,36.21,0,0,1,7.38,17.2s9,36.61-36.58,51.32l-300.11,78.69-68.72,14.18a185.12,185.12,0,0,1-55.51,3.11c-13-1.28-27.23-4.1-40.36-9.79,0,0-26.47-10.25-28.9-17.24l-25.47,8.05Z"/><rect class="cls-1" x="894.7" y="2116.78" width="35.13" height="319.32" transform="translate(-624.84 365.49) rotate(-16.97)"/><path class="cls-14" d="M948.7,2435l-43.38,10.92s-367.39,103.7-674.14,180.39c-99.6,24.9-184.51,44.49-231.18,53.34l.11-406.91c153.12-6.68,644.71-110.28,644.71-110.28l203.76-51.86,22,70.39Z"/><path class="cls-1" d="M821.56,2428.75a13.63,13.63,0,1,1-19.2-1.68A13.63,13.63,0,0,1,821.56,2428.75Z"/><path class="cls-1" d="M779.13,2441.24a13.63,13.63,0,1,1-19.2-1.68A13.63,13.63,0,0,1,779.13,2441.24Z"/><circle class="cls-1" cx="725.54" cy="2461.64" r="13.63" transform="translate(-1208.88 775.2) rotate(-32.5)"/><path class="cls-39" d="M1415.75,1943.58l15.15,51.23a8.15,8.15,0,0,0,10.28,5.45l27.84-8.86s21.68-8.36,16.9-37.43c0,0-4.92-24.21-28.73-28.68,0,0-9.66-1.1-26.9,5.55l-9,2.61A8.16,8.16,0,0,0,1415.75,1943.58Z"/><path class="cls-39" d="M1491.19,2033.91l14.5,49a7.79,7.79,0,0,0,9.83,5.22l26.66-8.48s20.74-8,16.16-35.82c0,0-4.7-23.17-27.49-27.45,0,0-9.24-1.05-25.75,5.31l-8.61,2.5A7.8,7.8,0,0,0,1491.19,2033.91Z"/><path class="cls-39" d="M1500.16,2143.77l10.55,42.73a6.72,6.72,0,0,0,8.26,4.87l23.25-6.26s18.15-6.06,15.3-30.17c0,0-3.14-20.11-22.58-24.68,0,0-7.9-1.26-22.35,3.56l-7.5,1.82A6.7,6.7,0,0,0,1500.16,2143.77Z"/><path class="cls-39" d="M1430.81,2265.4l10.32,41.79a6.57,6.57,0,0,0,8.08,4.76l22.74-6.11s17.75-5.94,15-29.52c0,0-3.07-19.66-22.08-24.13,0,0-7.73-1.23-21.86,3.49l-7.33,1.77A6.56,6.56,0,0,0,1430.81,2265.4Z"/><path class="cls-39" d="M1122.71,1887.37l24.18,21.78c2.06,1.86,5.58,1.13,7.8-1.63l14.2-17.65s10.63-14.55-.79-28.65c0,0-10.07-11.31-25.76-3,0,0-6.15,3.79-14.6,15.37l-4.66,5.55C1120.83,1881.85,1120.66,1885.53,1122.71,1887.37Z"/><path class="cls-37" d="M1030.29,921.17,1049,926s-1.61,52.37,20.35,74.05c0,0,177.59,184.81,209.54,212.7,0,0,61.12,14,52.67-49.68,0,0,2.75-11.53-10.64-28.06L1254.47,1061l302.74,89.6a56.92,56.92,0,0,0,30.06.79c13-3.26,27.73-11.89,33.32-33.62,0,0,3.38-11.75-4.77-26.71-7-12.85-19.25-17.14-33.27-21.35l-236.8-80.81,270.18,74.77c15,4.39,42.7,9.89,55.67,1.18,11.08-7.44,20.4-24.16,20.33-41.63,0,0-2.28-30.28-38.64-44.51l-258.53-80.56L1608.56,952c17.2,4.7,58.64,13.87,71.16-3.41,3.35-4.63,5.29-11.46,6.56-18.08,0,0,10.75-22.76-20.29-42.82-5.38-3.48-21.55-9.53-27.68-11.37L1406,800.06l159.3,41.3c16.55,4.81,36.5,4.82,47-8.85a34.33,34.33,0,0,0,7-16.3s8.47-34.67-34.65-48.6l-284.25-74.54-65.08-13.43a175.89,175.89,0,0,0-52.59-2.94c-12.27,1.21-25.79,3.88-38.22,9.27,0,0-25.07,9.71-27.37,16.33l-24.13-7.62Z"/><path class="cls-38" d="M1038.65,916.48l18.72,4.85s-1.62,52.37,20.35,74.06c0,0,177.58,184.81,209.53,212.7,0,0,61.12,14,52.67-49.68,0,0,2.76-11.53-10.64-28.06l-66.46-74.08,302.74,89.6a57,57,0,0,0,30.07.8c12.95-3.27,27.73-11.89,33.31-33.62,0,0,3.38-11.75-4.77-26.71-7-12.85-19.24-17.14-33.26-21.35l-236.8-80.81L1624.28,1059c15,4.39,42.7,9.89,55.68,1.17,11.07-7.44,20.39-24.16,20.33-41.62,0,0-2.29-30.29-38.65-44.51l-258.53-80.56,213.81,53.85c17.2,4.71,58.63,13.88,71.15-3.4,3.36-4.63,5.3-11.47,6.57-18.08,0,0,10.74-22.76-20.3-42.83-5.37-3.47-21.55-9.52-27.67-11.37L1414.3,795.37l159.31,41.3c16.55,4.81,36.49,4.82,47-8.86a34.28,34.28,0,0,0,7-16.29s8.47-34.67-34.65-48.6l-284.24-74.54L1243.6,675A175.16,175.16,0,0,0,1191,672c-12.28,1.21-25.79,3.88-38.23,9.26,0,0-25.07,9.72-27.37,16.34L1101.3,690Z"/><rect class="cls-1" x="1043.81" y="648.05" width="35.13" height="319.32" transform="translate(256.64 -255.92) rotate(15.62)"/><path class="cls-14" d="M998.84,960.07l-71.65-18.18-244.82-62.1v-.61q-18.48-4.2-37.56-8.47C425.29,821.59,153.23,767.11.11,760.44L0,336.72c46.66,8.86,134.07,27.14,233.4,53.15,184.41,48.29,413.17,126.62,587.05,176.26l278,70.52Z"/><path class="cls-1" d="M986.55,679.43a13.63,13.63,0,1,0-19.2,1.68A13.62,13.62,0,0,0,986.55,679.43Z"/><path class="cls-1" d="M944.11,666.94a13.62,13.62,0,1,0-19.19,1.68A13.62,13.62,0,0,0,944.11,666.94Z"/><path class="cls-1" d="M901,655.31a13.63,13.63,0,1,0-19.2,1.68A13.64,13.64,0,0,0,901,655.31Z"/><path class="cls-39" d="M1546.53,1119.81l14.34-48.52a7.72,7.72,0,0,1,9.73-5.16l26.38,8.39s20.53,7.92,16,35.45c0,0-4.66,22.93-27.21,27.17,0,0-9.14,1-25.48-5.26l-8.52-2.47A7.72,7.72,0,0,1,1546.53,1119.81Z"/><path class="cls-39" d="M1618,1034.25l13.73-46.43a7.37,7.37,0,0,1,9.31-4.94l25.25,8s19.64,7.57,15.31,33.93c0,0-4.46,21.94-26,26,0,0-8.76,1-24.39-5l-8.15-2.36A7.39,7.39,0,0,1,1618,1034.25Z"/><path class="cls-39" d="M1626.46,930.21l10-40.47a6.36,6.36,0,0,1,7.82-4.62l22,5.93s17.19,5.74,14.49,28.58c0,0-3,19-21.38,23.37,0,0-7.5,1.2-21.18-3.38l-7.1-1.71A6.36,6.36,0,0,1,1626.46,930.21Z"/><path class="cls-39" d="M1560.78,815l9.78-39.58a6.22,6.22,0,0,1,7.65-4.51l21.54,5.79s16.81,5.63,14.17,28c0,0-2.91,18.62-20.91,22.86,0,0-7.33,1.17-20.71-3.31l-6.94-1.68A6.22,6.22,0,0,1,1560.78,815Z"/><path class="cls-39" d="M1269,1173.05l22.9-20.63c2-1.76,5.29-1.06,7.39,1.55l13.45,16.71s10.07,13.79-.75,27.14c0,0-9.54,10.72-24.39,2.81,0,0-5.83-3.58-13.84-14.55l-4.41-5.27C1267.19,1178.28,1267,1174.8,1269,1173.05Z"/><path class="cls-13" d="M998.84,960.07c-14.81-5.17-39.52-11.32-71.65-18.18l-244.82-62.1v-.61q-18.48-4.2-37.56-8.47C425.29,821.59,153.23,767.11.11,760.44v-139L735.05,803s72,20.44,164.09,34.39c91.7,13.9,157.24-64.13,157.24-64.13Z"/><path class="cls-13" d="M894.17,2256.18s-41-29.2-99.5-36.3-128,8.67-128,8.67L.11,2384.16V2272.69c153.12-6.68,644.71-110.28,644.71-110.28l203.76-51.86Z"/><path class="cls-40" d="M3876,691.59l52.9-51.64a69.34,69.34,0,0,1,79.55-12.38c55.28,27.75,146.3,84.85,192.56,176.85a72.68,72.68,0,0,1-24.3,92.84l-51.85,35S4086.41,783.47,3876,691.59Z"/><path class="cls-15" d="M5455.77,1685.1c-1.8,26.59-9.61,51.27-20.68,73.56-.33.68-.65,1.33-1,2-38.1,75.07-148.78,111.52-232.79,117l-34.82,3.1-8.89.79-579.51,51.64c146.34-176.35,7.51-330.19,7.51-330.19l162.81-38.07a581,581,0,0,0,147.26-56.62c105-57.67,328.46-149.77,481.63,3.39q5.52,5.54,10.6,11c29.24,31.55,47.63,62.11,57.85,91.2A176.58,176.58,0,0,1,5455.77,1685.1Z"/><path class="cls-40" d="M4505.32,1950.37l73.93-.89a69.36,69.36,0,0,0,65-47.5c19.46-58.71,43.45-163.45,11.1-261.21a72.69,72.69,0,0,0-82.83-48.47l-62.37,10.06S4586.3,1734.34,4505.32,1950.37Z"/><path class="cls-40" d="M4528.36,594s-33.81-46.88-74.16-91.29c-28.11-31-83.78-82.54-83.78-82.54-5.26-5.8-6.25-13.55-2.19-17.24l3.68-3.35c4.06-3.68,11-1.17,16.95,3.84,0,0,36.82,31.05,83.68,82.63,50.19,55.24,74.26,91.2,74.26,91.2,5.32,8.12,6.25,13.55,2.19,17.23l-3.68,3.35C4541.25,601.53,4533.62,599.8,4528.36,594Z"/><path class="cls-40" d="M4575.59,552.52s-33.8-46.88-74.15-91.29c-28.12-31-83.78-82.54-83.78-82.54-5.27-5.8-6.26-13.56-2.2-17.24l3.69-3.35c4.06-3.69,11-1.18,17,3.83,0,0,36.82,31.06,83.68,82.64C4570,499.8,4594,535.76,4594,535.76c5.33,8.12,6.26,13.55,2.2,17.24l-3.69,3.35C4588.49,560,4580.86,558.31,4575.59,552.52Z"/><path class="cls-40" d="M4624.5,513.06s-33.81-46.88-74.16-91.29c-28.12-30.95-83.78-82.54-83.78-82.54-5.26-5.79-6.25-13.55-2.2-17.24l3.69-3.35c4.06-3.68,11-1.17,16.95,3.84,0,0,36.82,31,83.68,82.63,50.19,55.24,74.26,91.2,74.26,91.2,5.32,8.12,6.25,13.55,2.19,17.23l-3.69,3.35C4637.39,520.58,4629.76,518.85,4624.5,513.06Z"/><path class="cls-40" d="M5083.38,1803.59s-.32-57.8-7.41-117.38c-4.93-41.52-20.32-115.84-20.32-115.84-.92-7.78,2.78-14.67,8.22-15.31l4.95-.59c5.44-.65,9.63,5.42,11.57,13,0,0,12,46.66,20.19,115.86,8.81,74.11,7.54,117.36,7.54,117.36-.38,9.7-2.78,14.66-8.22,15.31l-4.95.59C5089.51,1817.19,5084.3,1811.36,5083.38,1803.59Z"/><path class="cls-40" d="M5145.92,1797.21s-.31-57.79-7.4-117.37c-4.93-41.53-20.32-115.85-20.32-115.85-.92-7.77,2.77-14.66,8.22-15.31l4.94-.59c5.45-.64,9.64,5.43,11.58,13,0,0,12,46.66,20.18,115.86,8.81,74.11,7.54,117.36,7.54,117.36-.38,9.71-2.77,14.67-8.21,15.32l-4.95.58C5152.06,1810.82,5146.85,1805,5145.92,1797.21Z"/><path class="cls-40" d="M5208.65,1793.47s-.32-57.8-7.4-117.38c-4.94-41.52-20.33-115.84-20.33-115.84-.92-7.78,2.78-14.67,8.22-15.32l4.95-.58c5.44-.65,9.63,5.42,11.57,13,0,0,12,46.66,20.19,115.86,8.81,74.11,7.54,117.37,7.54,117.37-.38,9.7-2.78,14.66-8.22,15.31l-4.95.59C5214.78,1807.07,5209.57,1801.24,5208.65,1793.47Z"/><path class="cls-41" d="M4766.35,242.31h0c-137.16-64.86-433.41,81-433.41,81l86.61-72.44c63.3-55.49,167.34-108,247.37-81.84C4704.51,181.3,4740.77,203.53,4766.35,242.31Z"/><path class="cls-41" d="M5157.62,1881.55l8.89-.79C5163.59,1881.1,5160.62,1881.36,5157.62,1881.55Z"/><path class="cls-41" d="M5455.77,1685.1c-2.51,33.83-13.41,58.44-20.68,73.56-.33.68-.65,1.33-1,2-38.1,75.07-148.78,111.52-232.79,117l-34.82,3.1c189.89-21.81,218.46-351.13,221.41-358,29.24,31.55,47.63,62.11,57.85,91.2A176.58,176.58,0,0,1,5455.77,1685.1Z"/></g></g></svg>