<svg xmlns="http://www.w3.org/2000/svg" xmlns:xlink="http://www.w3.org/1999/xlink" viewBox="0 0 4730 4719"><defs><style>.cls-1{fill:url(#Gradiente_sem_nome_3);}.cls-2{fill:url(#Gradiente_sem_nome_8);}.cls-3{fill:url(#Gradiente_sem_nome_54);}.cls-4{fill:#fff;}.cls-5{fill:#cecece;}.cls-6{fill:#e0e0e0;}.cls-7{fill:#ededed;}.cls-8{fill:#939393;}.cls-9{fill:#9e9e9e;}.cls-10,.cls-40{fill:#020202;}.cls-10{opacity:0.08;}.cls-11{fill:#777;}.cls-12{fill:#bfbfbf;}.cls-13{fill:#e6e7e9;}.cls-14{fill:#b8b9bb;}.cls-15{fill:#fefcfe;}.cls-16{fill:#42210b;}.cls-17{fill:#6b3e1f;}.cls-18{fill:#1b1f21;}.cls-19{fill:#475059;}.cls-20{fill:#f9f9f7;}.cls-21{fill:#f4ba2e;}.cls-22{fill:#ffdb92;}.cls-23{fill:#ffcc5a;}.cls-24{fill:#2d3538;}.cls-25{fill:#cecfd1;}.cls-26,.cls-28{fill:#231f20;}.cls-26{opacity:0.15;}.cls-27{fill:#f6f4f4;}.cls-28{opacity:0.2;}.cls-29{fill:#dedede;}.cls-30{fill:#3a4349;}.cls-31{fill:#252b2d;}.cls-32{fill:#414a51;}.cls-33{fill:#323b3f;}.cls-34{fill:#8e6040;}.cls-35{fill:#512d10;}.cls-36{fill:#eaeaea;}.cls-37{fill:#b2b2b2;}.cls-38{fill:#848484;}.cls-39{fill:#3f4d50;}.cls-40{opacity:0.26;}.cls-41{fill:#edbe85;}.cls-42{fill:#fff2e6;}.cls-43{fill:#e2e2e2;}.cls-44{fill:#31373a;}</style><linearGradient id="Gradiente_sem_nome_3" x1="4101.68" y1="4159.75" x2="4905.95" y2="5883.13" gradientTransform="translate(918.03 6512.68) rotate(-118.61)" gradientUnits="userSpaceOnUse"><stop offset="0" stop-color="#e19e36"/><stop offset="1" stop-color="#e3be4a"/></linearGradient><linearGradient id="Gradiente_sem_nome_8" x1="2819.08" y1="3714.67" x2="3045.3" y2="5716.29" gradientTransform="matrix(1, 0, 0, -1, -244.25, 5802.96)" gradientUnits="userSpaceOnUse"><stop offset="0.24" stop-color="#e19e36"/><stop offset="0.42" stop-color="#e2ac3f"/><stop offset="0.67" stop-color="#e3ba47"/><stop offset="0.91" stop-color="#e3be4a"/></linearGradient><linearGradient id="Gradiente_sem_nome_54" x1="2130.47" y1="3895.62" x2="3292.06" y2="1883.68" gradientUnits="userSpaceOnUse"><stop offset="0" stop-color="#e19e36"/><stop offset="1" stop-color="#fbb03b"/></linearGradient></defs><g id="Camada_2" data-name="Camada 2"><g id="Camada_6" data-name="Camada 6"><path class="cls-1" d="M845.79,2721.27c23.65,14.56,47.45,28.2,47.45,28.2A494.27,494.27,0,0,0,951,2775,1446.5,1446.5,0,0,1,435.39,1741c-21.14-75.78-31.75-161.66-28.88-260.12,20.15-682.68,545.27-774.43,864.25-596.84,224.43,125,275.21,289.3,499.72,308.5,114.12,9.76,210.9-28.5,251.52-44.56,153.79-60.79,216-155.57,301.48-232.1,186.1-166.55,504-262.55,776.67-184.39,194.07,55.63,364.63,198.36,443.75,386.15,44,104.34,59.72,218.5,93.43,327.24s91.44,216.74,190.34,270.35c95.3,51.61,211.49,42.8,316.24,15.11,204.44-54.14,386.43-176.43,586.09-243.8V0H730.06q-44.58,70.23-85.93,142.6C204.35,913.26-50.31,2169.74,845.79,2721.27Z"/><path class="cls-2" d="M3827.67,1715.25c-98.9-53.61-156.63-161.6-190.34-270.35s-49.39-222.9-93.43-327.24c-79.12-187.79-249.68-330.52-443.75-386.15-269.84-77-560.7,13.47-776.67,184.39-303.19,239.95-387.52,299.44-553,276.66-234-32.22-266-211.86-501.48-321.56-23.51-11-291.57-131.11-536-15-73.41,34.87-119.47,79.07-145,104-321.5,313.82-193.92,900-173,990a1417,1417,0,0,0,52,173c-12.21-86.71-31.05-308.87,94-536,48.19-87.53,166.11-302,408-358,239.69-55.54,440.28,80.52,468.21,100.11,220.59,154.65,168.38,343.28,347.65,435.53,101.09,52,256,39.74,577.68-68,245.7-82.32,532.71-69.23,748.06,86.34,154.88,112,261.25,293.76,272.82,486,6.22,107-15.8,214-19.91,320.58s13.06,222,84.1,302.07c68.42,76.52,174.17,106.22,276.18,115.29,244.34,21.77,490.91-58.78,734-14.73,91.71,16.89,185.87,50.54,272.21,98.58V1486.56c-199.66,67.37-381.65,189.66-586.09,243.8C4039.16,1758.05,3923,1766.86,3827.67,1715.25Z"/><path class="cls-3" d="M3723.79,3006.86c-102-9.07-207.76-38.77-276.18-115.29-71-80.05-88.2-195.47-84.1-302.07s26.13-213.59,19.91-320.58C3371.85,2076.73,3265.48,1895,3110.6,1783c-215.35-155.57-502.36-168.66-748.06-86.34-321.72,107.75-476.59,120-577.68,68-181.44-93.37-124.48-277-347.65-435.53C1411.72,1311,1185.41,1155.57,918,1228c-182.23,49.36-285.33,178.25-324,228-192.33,247.43-146.83,544.71-135,622,41.11,268.63,192.66,440.44,243,496,273.13,301.44,654.68,353.44,775.21,364,713.74,62.5,1155.91-464,1202.19,428.83,35,677.77,514.92,1737.66,1823.55,1209.67,81.1-32.72,156.53-55.65,227.05-69.95V3090.71c-86.34-48-180.5-81.69-272.21-98.58C4214.7,2948.08,3968.13,3028.63,3723.79,3006.86Z"/></g><g id="Layer_5" data-name="Layer 5"><polygon class="cls-4" points="3532.34 3429.04 3529.91 3416.11 3687.05 3387.06 3689.48 3399.99 3532.34 3429.04"/><polygon class="cls-5" points="3687.5 3386.98 3689.93 3399.91 3681.57 3401.45 3679.14 3388.52 3687.5 3386.98"/><path class="cls-4" d="M3688.33,3412.42l-6.84-36.4a1.89,1.89,0,0,1,1.53-2.21l43.67-8.07a1.9,1.9,0,0,1,2.23,1.51l6.84,36.4a1.9,1.9,0,0,1-1.53,2.22l-43.67,8.07A1.91,1.91,0,0,1,3688.33,3412.42Z"/><path class="cls-4" d="M3732.12,3411l-9.16-48.74a10.54,10.54,0,0,1,8.47-12.26l87.07-16.1a10.62,10.62,0,0,1,12.36,8.41L3840,3391a10.55,10.55,0,0,1-8.48,12.26l-87.06,16.1A10.62,10.62,0,0,1,3732.12,3411Z"/><path class="cls-6" d="M3730.37,3412l-9.39-50a11.77,11.77,0,0,1,9.48-13.71l88.32-16.33a11.83,11.83,0,0,1,8.87,1.87,11.68,11.68,0,0,1,4.95,7.53l9.4,50a11.58,11.58,0,0,1-1.89,8.8,11.77,11.77,0,0,1-7.59,4.91l-88.32,16.33a11.88,11.88,0,0,1-13.83-9.4Zm89.1-76.34-88.32,16.33a8,8,0,0,0-6.45,9.33l9.4,50a8.06,8.06,0,0,0,9.4,6.4l88.33-16.33A8,8,0,0,0,3837,3398a7.86,7.86,0,0,0,1.28-6l-9.39-50a7.94,7.94,0,0,0-3.38-5.12,8.14,8.14,0,0,0-3-1.27A8.28,8.28,0,0,0,3819.47,3335.61Z"/><path class="cls-7" d="M4532.7,3070l60.95,324.26a47.43,47.43,0,0,1-38.23,55.29l-649,120a47.78,47.78,0,0,1-55.75-37.92l-60.95-324.26a47.42,47.42,0,0,1,38.23-55.29l649-120A47.78,47.78,0,0,1,4532.7,3070Z"/><polygon class="cls-8" points="4442.64 3050.58 4516.64 3444.27 3938.28 3551.2 3864.27 3157.51 4442.64 3050.58"/><path class="cls-9" d="M3857.83,3305.35l20.63,109.71a6.29,6.29,0,0,1-5.08,7.34h0a6.34,6.34,0,0,1-7.4-5l-20.62-109.72a6.29,6.29,0,0,1,5.07-7.33h0A6.33,6.33,0,0,1,3857.83,3305.35Z"/><path class="cls-10" d="M3825,3152.44l654.65-121a45,45,0,0,1,52.38,35.78l8.44,44.9-714.7,287-36.53-194.56A44.6,44.6,0,0,1,3825,3152.44Z"/><polygon class="cls-6" points="3797.18 3366.51 3799.63 3379.51 3751.97 3388.32 3749.53 3375.32 3797.18 3366.51"/><path class="cls-4" d="M4146.79,3860.47c4.87,25.87,1.12,50.88-10.91,70.53-2.27,3.71-4.81,7.18-7.26,10.55-3.55,4.87-6.9,9.46-9.3,14.46-3,6.38-4.89,16,0,22.12l-10.4,8.17c-8.67-10.85-6.5-25.68-1.59-35.94,2.92-6.08,6.79-11.39,10.53-16.52,2.4-3.3,4.68-6.41,6.67-9.67,12.69-20.73,14.56-48.78,5.12-77-8.79-26.22-25.79-49.51-42.85-70.77-7.58-9.45-15.61-19.06-24.34-28.12a125.57,125.57,0,0,1-7.68,21.54c-13.82,29.73-40.45,52-69.48,58.06-32.84,6.88-67.76-7.75-83-34.78a68.08,68.08,0,0,1,.45-66.56c12.84-22,39.56-36.67,68.06-37.25,30.7-.62,56.7,13.33,73.11,25.15,3.27,2.35,6.43,4.81,9.51,7.36a165.91,165.91,0,0,0-1.89-39.25c-4.72-28.94-15.67-56.12-26.79-81.18-9.76-22-20.88-44.69-39.87-59.65-18.47-14.55-44.94-21.45-74.51-19.44-16.55,1.12-34.33,5.51-51.52,9.76-10.92,2.7-22.2,5.49-33,7.39-45.81,8.06-93.18,16.4-140.91,14.14-37.86-1.79-91.79-11.55-133.74-47.86-22.68-19.64-39-44.7-54.14-69.9l-29.52,5.63c-18.93,3.62-40.4,7.71-61.31,3.33-21.29-4.45-39.88-17.76-49.72-35.6-10.59-19.18-10.47-43.15.31-61.07,11.55-19.18,34.5-29.85,55.83-25.94,19.34,3.55,33.8,17.62,43,27.9,18.07,20.21,32,43.84,45.51,66.7l2.59,4.38,35.5-6.77,2.51,12.92-30.84,5.88c14.18,23.44,28.87,45.19,49,62.63,39.07,33.82,89.9,42.94,125.66,44.63,46.24,2.19,92.86-6,137.95-13.95,10.36-1.82,20.92-4.44,32.11-7.2,17.75-4.39,36.11-8.92,53.82-10.13,32.88-2.23,62.6,5.68,83.67,22.27,21.36,16.83,33.79,42.19,43.75,64.65,10.94,24.62,22.78,53.9,27.75,84.38a173.35,173.35,0,0,1,1,52.24c11.64,11.24,22,23.52,31.62,35.52,17.82,22.21,35.62,46.64,45.06,74.81A131,131,0,0,1,4146.79,3860.47ZM3908,3770.53a52.84,52.84,0,0,0,5.87,16.18c12.29,21.79,41.83,34,68.7,28.34,25-5.24,48.07-24.67,60.18-50.7a116.34,116.34,0,0,0,8.58-26.86,177.28,177.28,0,0,0-15.21-12.37c-14.76-10.63-38-23.19-65-22.64-24,.49-46.27,12.53-56.84,30.68A54.74,54.74,0,0,0,3908,3770.53Zm-545.26-382.67a50.67,50.67,0,0,0,5.39,15c8,14.51,23.28,25.37,40.82,29,18.3,3.83,38.37,0,56.08-3.38l24.88-4.74-.22-.38c-13.16-22.3-26.78-45.37-44-64.61-12.55-14-23.82-21.56-35.49-23.7-15.72-2.88-33.4,5.42-42,19.75C3362.41,3364.51,3360.59,3376.42,3362.74,3387.86Z"/><path class="cls-4" d="M3982.46,4121.44c41.55-.73,72.47-8.25,97.32-23.67,30.85-19.15,49.52-52.19,47.46-83.29,2.35,2.64,4.75,5.22,7.14,7.75a517.33,517.33,0,0,0,162,115l5.48-12a504,504,0,0,1-157.83-112.05c-14.71-15.54-30.12-33.56-26.75-50.85l-12.84-3.22c-4.42,13.94-.27,24.36,3.74,34.43,2.28,5.73,4.64,11.66,5.5,18.52,3.92,31.49-17.75,60.11-41,74.52-22.72,14.1-51.48,21-90.52,21.67Z"/><ellipse class="cls-11" cx="4407.15" cy="4120.52" rx="12.02" ry="58.02" transform="translate(-1438.36 5614.38) rotate(-57.41)"/><path class="cls-4" d="M4450.45,4142.16c11.12,6,14.15,28.13.3,34a268.3,268.3,0,0,1-42.51,13.63l20.29,13c5.57,3.56,6.83,11.17,3.06,17l-.73,1.12c-3.77,5.79-11.19,7.65-16.76,4.09l-143.17-91.59,14.42-22.19,59.42,38c-.54-5.18-3.28-32.54-4.31-39.77a20.8,20.8,0,0,1,4.23-16,20.58,20.58,0,0,1,6.33-4.91c5.55-2.75,12.74-3.21,17,.93C4381.78,4102.63,4438.09,4135.47,4450.45,4142.16Z"/><path class="cls-12" d="M4225.77,4080.39l-7.67,11.8a6.27,6.27,0,0,0,1.89,8.71l66.64,42.63,14.57-22.39-66.64-42.63A6.39,6.39,0,0,0,4225.77,4080.39Z"/><ellipse class="cls-11" cx="3848.16" cy="4071.15" rx="58.15" ry="12" transform="translate(-676.14 767.62) rotate(-10.48)"/><path class="cls-4" d="M3799.82,4074.91c-12.59,1.4-23.84,20.72-13.26,31.34a266.06,266.06,0,0,0,34.14,28.58l-23.73,4.4c-6.51,1.2-10.59,7.77-9.31,14.55l.24,1.32c1.28,6.77,7.44,11.28,13.95,10.08l167.49-31-4.88-26L3895,4121.09c2.47-4.58,15.46-28.87,19.17-35.18a20.76,20.76,0,0,0,2.19-16.37,20.34,20.34,0,0,0-4-6.92c-4.09-4.63-10.56-7.76-16.12-5.54C3878.47,4064.12,3813.81,4073.36,3799.82,4074.91Z"/><path class="cls-12" d="M4031.35,4102.14l2.59,13.8a6.3,6.3,0,0,1-5.08,7.35l-78,14.43-4.93-26.2,77.95-14.42A6.36,6.36,0,0,1,4031.35,4102.14Z"/></g><g id="Layer_6" data-name="Layer 6"><path class="cls-13" d="M2389.52,3340.1a365.78,365.78,0,0,0-6.53,52.83c-9,178.34,115.15,340.79,297,376.25,5.26,1,10.47,1.9,15.69,2.7,194,29.46,378.78-97.87,417-290.72,39.28-198-90.8-390.13-290.5-429.09S2428.8,3142.05,2389.52,3340.1Z"/><path class="cls-4" d="M2379.15,3338.08a375.84,375.84,0,0,0-6.69,54.36c-.08,2.26-.23,4.44-.24,6.64l10.84-7.21,11.08-7.37a348.86,348.86,0,0,1,5.74-42.38c38.09-192,226.62-317.54,420.24-279.77s320.26,224.77,282.17,416.79c-36.41,183.6-208.28,306.53-394.21,283.86l-13.07,8.76-12.67,8.49c3.87.76,7.77,1.38,11.67,2,201.29,30.59,389.69-100.79,429-299,40.34-203.4-93.73-401.39-298.82-441.4S2419.49,3134.68,2379.15,3338.08Z"/><path class="cls-9" d="M2372.22,3399.08c-5.9,182.15,124.5,345,305.68,380.38,1.53.3,3,.58,4.44.79l12.67-8.49,13.07-8.76c-3.57-.42-7.21-.91-10.83-1.48-5.08-.77-10.15-1.62-15.27-2.62-173.23-33.79-297.18-190.87-288.46-365.48.15-3,.32-6,.62-8.92l-11.08,7.37Z"/><path class="cls-14" d="M2394.14,3384.5c-.3,2.93-.47,6-.62,8.92C2384.8,3568,2508.75,3725.11,2682,3758.9c5.12,1,10.19,1.85,15.27,2.62,3.62.57,7.26,1.06,10.83,1.48l381.4-256.53-481.43-264Z"/><path class="cls-15" d="M3078,3504.26l-125.5-24.48a.35.35,0,0,1-.28-.42l10-50.61a5,5,0,0,1,5.85-3.9l120.25,23.46a28.91,28.91,0,0,1,22.89,33.82h0A28.39,28.39,0,0,1,3078,3504.26Z"/><ellipse class="cls-15" cx="2751.08" cy="3410.63" rx="220.75" ry="218.93"/><path class="cls-16" d="M2572.36,3375.77c-19.42,97.93,44.86,192.9,143.53,212.15a182.74,182.74,0,0,0,151.76-38.52,178.93,178.93,0,0,0,62.17-103.9c19.42-97.93-44.86-192.9-143.61-212.16a182.75,182.75,0,0,0-178.5,65.9A178.49,178.49,0,0,0,2572.36,3375.77Z"/><path class="cls-17" d="M2572.36,3375.77c-19.42,97.93,44.86,192.9,143.53,212.15a182.74,182.74,0,0,0,151.76-38.52,178.49,178.49,0,0,0,35.35-76.53c19.41-97.86-44.86-192.9-143.53-212.15a182.74,182.74,0,0,0-151.76,38.52A178.49,178.49,0,0,0,2572.36,3375.77Z"/></g><g id="Layer_7" data-name="Layer 7"><path class="cls-15" d="M2350.14,811.84l367.48,468.56,791.05-610.21L3141.2,201.63a65.47,65.47,0,0,0-91.37-11.32l-42.71,32.94-1.75,1.35-40.43,31.19-1.76,1.35L2924.5,287l-1.75,1.36-38.68,29.83-1.75,1.35-38.68,29.83-1.76,1.37L2361.57,721.23a64.27,64.27,0,0,0-9.35,8.81c-.51.56-1,1.14-1.46,1.73A64.17,64.17,0,0,0,2350.14,811.84Z"/><path class="cls-18" d="M3436.45,654.55c-7.36,5.68-9.65,15-5.12,20.74s14.17,5.86,21.53.18,9.66-15,5.13-20.74S3443.82,648.87,3436.45,654.55Z"/><path class="cls-18" d="M3353.43,718.59c-7.36,5.68-9.66,15-5.13,20.75s14.18,5.85,21.54.17,9.66-15,5.13-20.74S3360.79,712.91,3353.43,718.59Z"/><path class="cls-18" d="M3274.85,781.32c-7.36,5.68-9.66,15-5.13,20.74s14.17,5.86,21.54.18,9.65-15,5.12-20.74S3282.21,775.64,3274.85,781.32Z"/><path class="cls-18" d="M3189.43,842.3c-7.36,5.68-9.66,15-5.13,20.75s14.17,5.85,21.54.17,9.65-15,5.12-20.74S3196.79,836.62,3189.43,842.3Z"/><path class="cls-18" d="M3109.82,903.72c-7.37,5.68-9.66,15-5.13,20.74s14.17,5.86,21.53.18,9.66-15,5.13-20.75S3117.18,898,3109.82,903.72Z"/><path class="cls-18" d="M3030.2,965.13c-7.36,5.68-9.65,15-5.12,20.74s14.17,5.86,21.53.18,9.66-15,5.13-20.74S3037.57,959.45,3030.2,965.13Z"/><path class="cls-18" d="M2950.59,1026.54c-7.36,5.68-9.66,15-5.13,20.75s14.18,5.85,21.54.17,9.66-15,5.13-20.74S2958,1020.86,2950.59,1026.54Z"/><ellipse class="cls-18" cx="2872.15" cy="1103.84" rx="16.84" ry="13.29" transform="translate(-87.64 1944.87) rotate(-36.89)"/><path class="cls-18" d="M2782.58,1156.15c-7.37,5.68-9.66,15-5.13,20.74s14.17,5.86,21.53.18,9.66-15,5.13-20.74S2789.94,1150.47,2782.58,1156.15Z"/><path class="cls-19" d="M3443,655.76l56.4,71.92a3.23,3.23,0,0,0,4.49.56h0a3.17,3.17,0,0,0,.56-4.46l-56.4-71.91a3.23,3.23,0,0,0-4.49-.56h0A3.16,3.16,0,0,0,3443,655.76Z"/><path class="cls-19" d="M3430.36,666.59l56.4,71.92a3.23,3.23,0,0,0,4.49.55h0a3.16,3.16,0,0,0,.56-4.45l-56.4-71.92a3.22,3.22,0,0,0-4.49-.55h0A3.16,3.16,0,0,0,3430.36,666.59Z"/><path class="cls-19" d="M3360.51,719.69l56.4,71.91a3.23,3.23,0,0,0,4.49.56h0a3.17,3.17,0,0,0,.57-4.46l-56.4-71.91a3.24,3.24,0,0,0-4.5-.56h0A3.17,3.17,0,0,0,3360.51,719.69Z"/><path class="cls-19" d="M3347.72,729.54l56.4,71.91a3.23,3.23,0,0,0,4.49.56h0a3.16,3.16,0,0,0,.56-4.46l-56.4-71.91a3.23,3.23,0,0,0-4.49-.56h0A3.17,3.17,0,0,0,3347.72,729.54Z"/><path class="cls-19" d="M3281.9,782.52l56.4,71.92a3.24,3.24,0,0,0,4.5.56h0a3.17,3.17,0,0,0,.56-4.46L3287,778.63a3.24,3.24,0,0,0-4.5-.56h0A3.16,3.16,0,0,0,3281.9,782.52Z"/><path class="cls-19" d="M3269.16,792.36l56.4,71.91a3.23,3.23,0,0,0,4.49.56h0a3.17,3.17,0,0,0,.56-4.46l-56.4-71.91a3.23,3.23,0,0,0-4.49-.56h0A3.17,3.17,0,0,0,3269.16,792.36Z"/><path class="cls-19" d="M3196.55,843.46l56.4,71.91a3.23,3.23,0,0,0,4.49.56h0a3.17,3.17,0,0,0,.56-4.46l-56.4-71.91a3.23,3.23,0,0,0-4.49-.56h0A3.16,3.16,0,0,0,3196.55,843.46Z"/><path class="cls-19" d="M3183.8,853.29l56.4,71.91a3.23,3.23,0,0,0,4.49.56h0a3.16,3.16,0,0,0,.57-4.45l-56.4-71.92a3.24,3.24,0,0,0-4.5-.56h0A3.17,3.17,0,0,0,3183.8,853.29Z"/><path class="cls-19" d="M3116.9,904.85l56.4,71.91a3.24,3.24,0,0,0,4.5.56h0a3.16,3.16,0,0,0,.56-4.45L3122,901a3.24,3.24,0,0,0-4.5-.56h0A3.17,3.17,0,0,0,3116.9,904.85Z"/><path class="cls-19" d="M3104.16,914.68l56.4,71.92a3.23,3.23,0,0,0,4.49.55h0a3.16,3.16,0,0,0,.56-4.45l-56.4-71.92a3.22,3.22,0,0,0-4.49-.55h0A3.16,3.16,0,0,0,3104.16,914.68Z"/><path class="cls-19" d="M3037.18,966.28l56.4,71.91a3.24,3.24,0,0,0,4.5.56h0a3.17,3.17,0,0,0,.56-4.46l-56.4-71.91a3.24,3.24,0,0,0-4.5-.56h0A3.17,3.17,0,0,0,3037.18,966.28Z"/><path class="cls-19" d="M3024.44,976.11l56.4,71.91a3.23,3.23,0,0,0,4.49.56h0a3.17,3.17,0,0,0,.56-4.46l-56.4-71.91a3.23,3.23,0,0,0-4.49-.56h0A3.17,3.17,0,0,0,3024.44,976.11Z"/><path class="cls-19" d="M2957.64,1027.68l56.41,71.91a3.23,3.23,0,0,0,4.49.56h0a3.16,3.16,0,0,0,.56-4.45l-56.4-71.92a3.23,3.23,0,0,0-4.49-.56h0A3.17,3.17,0,0,0,2957.64,1027.68Z"/><path class="cls-19" d="M2944.9,1037.51l56.4,71.92a3.23,3.23,0,0,0,4.49.55h0a3.15,3.15,0,0,0,.56-4.45l-56.4-71.92a3.23,3.23,0,0,0-4.49-.56h0A3.17,3.17,0,0,0,2944.9,1037.51Z"/><path class="cls-19" d="M2871,1094.51l56.4,71.92a3.23,3.23,0,0,0,4.49.55h0a3.16,3.16,0,0,0,.56-4.45l-56.4-71.92a3.22,3.22,0,0,0-4.49-.55h0A3.16,3.16,0,0,0,2871,1094.51Z"/><path class="cls-19" d="M2858.26,1104.34l56.4,71.92a3.23,3.23,0,0,0,4.5.55h0a3.16,3.16,0,0,0,.56-4.45l-56.4-71.92a3.24,3.24,0,0,0-4.5-.55h0A3.16,3.16,0,0,0,2858.26,1104.34Z"/><path class="cls-19" d="M2789.72,1157.37l56.4,71.91a3.23,3.23,0,0,0,4.49.56h0a3.17,3.17,0,0,0,.57-4.46l-56.4-71.91a3.24,3.24,0,0,0-4.5-.56h0A3.17,3.17,0,0,0,2789.72,1157.37Z"/><path class="cls-19" d="M2777,1167.2l56.4,71.91a3.23,3.23,0,0,0,4.49.56h0a3.17,3.17,0,0,0,.56-4.46L2782,1163.3a3.23,3.23,0,0,0-4.49-.56h0A3.17,3.17,0,0,0,2777,1167.2Z"/><polygon class="cls-18" points="2963.18 257.14 3370.23 776.17 3371.99 774.81 2964.94 255.79 2963.18 257.14"/><polygon class="cls-18" points="3005.37 224.6 3412.42 743.62 3414.18 742.26 3007.12 223.25 3005.37 224.6"/><polygon class="cls-18" points="3042.28 196.13 3449.34 715.14 3451.09 713.79 3044.04 194.77 3042.28 196.13"/><polygon class="cls-18" points="2922.75 288.34 3329.8 807.35 3331.56 806 2924.51 286.98 2922.75 288.34"/><polygon class="cls-18" points="2882.32 319.52 3289.37 838.54 3291.13 837.18 2884.07 318.17 2882.32 319.52"/><polygon class="cls-18" points="2841.89 350.71 3248.94 869.73 3250.7 868.37 2843.64 349.35 2841.89 350.71"/><polygon class="cls-18" points="2801.05 381.39 3208.51 900.92 3210.26 899.56 2802.81 380.03 2801.05 381.39"/><polygon class="cls-18" points="2760.62 412.58 3168.08 932.11 3169.83 930.75 2762.38 411.22 2760.62 412.58"/><polygon class="cls-18" points="2721.95 442.41 3129.4 961.94 3131.16 960.58 2723.71 441.05 2721.95 442.41"/><polygon class="cls-18" points="2679.76 474.95 3087.21 994.48 3088.97 993.13 2681.52 473.6 2679.76 474.95"/><polygon class="cls-18" points="2641.09 504.79 3048.54 1024.32 3050.3 1022.96 2642.84 503.43 2641.09 504.79"/><polygon class="cls-18" points="2602.41 534.62 3009.87 1054.15 3011.62 1052.79 2604.17 533.26 2602.41 534.62"/><polygon class="cls-18" points="2560.22 567.16 2967.68 1086.69 2969.43 1085.34 2561.98 565.81 2560.22 567.16"/><polygon class="cls-18" points="2516.28 601.06 2923.73 1120.59 2925.49 1119.24 2518.03 599.71 2516.28 601.06"/><polygon class="cls-18" points="2474.09 633.61 2881.54 1153.14 2883.3 1151.78 2475.84 632.25 2474.09 633.61"/><polygon class="cls-18" points="2433.66 664.8 2841.11 1184.33 2842.87 1182.97 2435.41 663.44 2433.66 664.8"/><polygon class="cls-18" points="2391.47 697.34 2798.92 1216.87 2800.68 1215.52 2393.22 695.99 2391.47 697.34"/><path class="cls-18" d="M2350.76,731.77l406,517.65,1.76-1.36L2352.22,730C2351.71,730.6,2351.23,731.18,2350.76,731.77Z"/></g><g id="Layer_4" data-name="Layer 4"><polygon class="cls-20" points="4291.84 507.14 3772.1 820.66 4148.56 1434.5 4668.3 1120.98 4291.84 507.14"/><polygon class="cls-20" points="1422.39 2039.96 1764.23 1540.9 1164.98 1137.19 823.14 1636.24 1422.39 2039.96"/><path class="cls-21" d="M3954.17,542.48l-8.59,417.62c-.06,2.57-3.49,4.57-7.66,4.49l-40.33-.82c-4.17-.09-7.52-2.23-7.47-4.8l8.6-417.61a2.89,2.89,0,0,1,.22-1l55,1.11A2.59,2.59,0,0,1,3954.17,542.48Z"/><path class="cls-22" d="M3914,964.1l-16.38-.33c-4.17-.09-7.52-2.23-7.47-4.8l8.6-417.61a2.89,2.89,0,0,1,.22-1l16.39.33a2.74,2.74,0,0,0-.21.78,2.28,2.28,0,0,0,0,.26l-8.59,417.61C3906.45,961.87,3909.8,964,3914,964.1Z"/><path class="cls-23" d="M3934.64,542.09,3926,959.7c-.05,2.57-1.29,4.62-2.75,4.59l-14.22-.29c-1.46,0-2.62-2.13-2.56-4.7l8.59-417.61a2.28,2.28,0,0,1,0-.26c0-.26,0-.53.07-.78l19.41.39A9,9,0,0,1,3934.64,542.09Z"/><path class="cls-7" d="M3898.92,540.32s26.25-89.72,29.41-89.76S3954,541.44,3954,541.44Z"/><path class="cls-24" d="M3916.94,481.16s9.75-31.61,11.36-31.32c2,.35,10.16,31.63,10.16,31.63Z"/><path class="cls-25" d="M2373.26,1939.53c29.49-7.8,60,9.75,67.89,39l98.38,366.12c7.85,29.24-9.84,59.53-39.33,67.33l-512.28,135.38c-29.48,7.79-60-9.75-67.88-39l-98.38-366.12c-7.85-29.24,9.84-59.54,39.32-67.33Z"/><path class="cls-26" d="M2318.72,2459.93,2542.1,2359.6c.62-5.17-2.59-15.22-4.11-20.72l-47.8-172.1s-107-228.58-107.4-229.38l-206.4,59L1844.7,2133.64l2,10.12,418.18,330Z"/><path class="cls-27" d="M2292.78,1917.84c27.49-13.13,60.81-1.55,74,25.71L2532.5,2285a55,55,0,0,1-25.94,73.43l-477.71,228c-27.49,13.12-60.81,1.55-74-25.71l-165.67-341.41a55,55,0,0,1,25.93-73.44Z"/><path class="cls-28" d="M1930.34,2493.72l113-44.84s13.91-8.74,22.08,6.3S2094,2556,2094,2556Z"/><path class="cls-29" d="M1924.18,2496.54l101.63-46.67s13.92-8.75,22.09,6.29,46.53,99.66,46.53,99.66Z"/><path class="cls-26" d="M2207.1,2399.3a7.59,7.59,0,0,0,3.56-10.18L2083.5,2126.74a7.7,7.7,0,0,0-10.26-3.53h0a7.58,7.58,0,0,0-3.56,10.18l127.15,262.37a7.71,7.71,0,0,0,10.27,3.54Z"/><path class="cls-26" d="M2198.24,2309.26a7.58,7.58,0,0,0,3.56-10.19L2111.31,2114a7.71,7.71,0,0,0-10.27-3.53h0a7.6,7.6,0,0,0-3.56,10.18l90.5,185.12a7.7,7.7,0,0,0,10.26,3.54Z"/><path class="cls-26" d="M2265.76,2372.32a7.6,7.6,0,0,0,3.56-10.19l-127.16-262.37a7.71,7.71,0,0,0-10.27-3.53h0a7.6,7.6,0,0,0-3.56,10.18l127.16,262.37a7.72,7.72,0,0,0,10.27,3.54Z"/><path class="cls-26" d="M2249.65,2254.72a7.58,7.58,0,0,0,3.56-10.19l-78.16-159.9a7.7,7.7,0,0,0-10.26-3.53h0a7.57,7.57,0,0,0-3.56,10.18l78.16,159.9a7.71,7.71,0,0,0,10.26,3.54Z"/><path class="cls-26" d="M2295.3,2270.79a7.6,7.6,0,0,0,3.56-10.19l-93-190.16a7.72,7.72,0,0,0-10.27-3.54h0a7.6,7.6,0,0,0-3.55,10.19l93,190.16a7.72,7.72,0,0,0,10.27,3.54Z"/><path class="cls-26" d="M2362.79,2327.68a7.6,7.6,0,0,0,3.57-10.19L2239.2,2055.12a7.71,7.71,0,0,0-10.27-3.53h0a7.6,7.6,0,0,0-3.56,10.18l127.16,262.37a7.7,7.7,0,0,0,10.26,3.54Z"/><path class="cls-26" d="M2393,2313.78a7.59,7.59,0,0,0,3.56-10.18L2269.4,2041.23a7.71,7.71,0,0,0-10.26-3.54h0a7.61,7.61,0,0,0-3.57,10.19l127.16,262.37a7.71,7.71,0,0,0,10.27,3.53Z"/><path class="cls-24" d="M1680.87,2251.6l4.7,417.67c0,2.57-3.34,4.68-7.52,4.73l-40.33.45c-4.18,0-7.59-2-7.62-4.57l-4.69-417.67a2.57,2.57,0,0,1,.19-1.05l55.06-.6A2.65,2.65,0,0,1,1680.87,2251.6Z"/><path class="cls-19" d="M1654.1,2674.26l-16.38.19c-4.18,0-7.59-2-7.62-4.57l-4.69-417.67a2.57,2.57,0,0,1,.19-1.05L1642,2251a3.14,3.14,0,0,0-.19.79,1.13,1.13,0,0,0,0,.26l4.69,417.67C1646.52,2672.27,1649.93,2674.31,1654.1,2674.26Z"/><path class="cls-30" d="M1661.33,2251.81l4.7,417.68c0,2.57-1.15,4.66-2.61,4.67l-14.22.16c-1.46,0-2.68-2.05-2.71-4.62L1641.8,2252a1.13,1.13,0,0,1,0-.26,6.84,6.84,0,0,1,0-.79l19.41-.21A8.93,8.93,0,0,1,1661.33,2251.81Z"/><path class="cls-17" d="M1625.58,2251.17s23.38-90.5,26.53-90.64,28.57,90,28.57,90Z"/><path class="cls-27" d="M1641.7,2191.47s8.75-31.9,10.37-31.66c2,.29,11.15,31.3,11.15,31.3Z"/><path class="cls-31" d="M1928.75,2245.85l-304.58,288.49c-1.88,1.78-5.73.78-8.61-2.22l-27.86-28.93c-2.89-3-3.72-6.86-1.84-8.63l304.58-288.49a3,3,0,0,1,.9-.58l38,39.5A2.67,2.67,0,0,1,1928.75,2245.85Z"/><path class="cls-32" d="M1599,2514.94l-11.31-11.75c-2.89-3-3.72-6.86-1.84-8.63l304.58-288.49a3,3,0,0,1,.9-.58l11.32,11.76a3,3,0,0,0-.7.4,1.71,1.71,0,0,0-.2.18l-304.58,288.48C1595.3,2508.09,1596.13,2512,1599,2514.94Z"/><path class="cls-33" d="M1915.26,2231.84l-304.59,288.49c-1.87,1.77-4.21,2.35-5.22,1.3l-9.82-10.2c-1-1-.33-3.34,1.55-5.12l304.58-288.48a1.71,1.71,0,0,1,.2-.18,7.37,7.37,0,0,1,.61-.5l13.41,13.92C1915.75,2231.33,1915.52,2231.59,1915.26,2231.84Z"/><path class="cls-34" d="M1891.33,2205.48s82.65-44.82,84.9-42.63-46.84,82.16-46.84,82.16Z"/><path class="cls-33" d="M1946.32,2176.42s29.48-15.43,30.41-14.1c1.16,1.67-15.45,29.45-15.45,29.45Z"/></g><g id="Layer_2" data-name="Layer 2"><path class="cls-30" d="M1337.53,931.25c2.22,25.66,209,346.55,411.43,625.48C1958.78,1845.88,2529.25,2354,2529.25,2354c407.53,281.43,1111.87,515.26,1111.87,515.26L4101.46,2948l159-848.11L3065.81,1898.3c-166.31-175-638.86-415.27-763.65-500.06-20.39-13.86-31.95-21.6-31.95-21.6-54.93-76.09-140.88-96.71-182.66-134.81-56.8-51.79-114.06-92-158-156.86-41.78-61.76-115.11-106-164-155.34-72.3-73-118-141.18-147.56-163.93-9.81-7.55-15.34-11.57-15.34-11.57C1370.29,716,1337.53,931.25,1337.53,931.25Z"/><path class="cls-18" d="M1618,765.7c181.6,299,859.05,1241.86,859.05,1241.86l76-335.15c-20.39-13.85-296.4-313.7-296.4-313.7-77.32-67-192.65-171-235-210.93-82-77.43-218.64-203.85-276.84-259.91Z"/><path class="cls-19" d="M806.16,1890.44l266.49,1.42s676.28-44.32,932.77-26.11c0,0,623.13,35.26,837.36,56.49,0,0,1177.44,169.13,1350.14,188.4l203.92-506.32-404.58-335s-524.16-3.8-1063.41,4.16c-428.72,6.34-867,20.12-1059,49.15L1368,1400.75c-54.09,8.42-290.25,53.26-354,79.48-41.07,16.89-84,4.15-145.66,69.48,0,0-104.07,39.19-184.66,134,0,0-47.38-23.38-56.85,13.23S685.08,1866.83,806.16,1890.44Z"/><path class="cls-18" d="M842.89,302.17c-42.16,212.57,140.73,342.91,237.84,396a510.63,510.63,0,0,1,117.38,88.23L1308.89,897.9s49.83-201.22,259.48-182L1278.11,324l-63.91-86.3C1168,172.1,1084.49,102.3,1007.32,113.9c-36.25,5.44-73.24,20.89-103.83,54.45h0C876.9,197.53,855.15,240.36,842.89,302.17Z"/><path class="cls-35" d="M4281.12,3039.42s-251.82,3.45-250.45-59.58C4046.06,2271.44,4351,1296.59,4351,1296.59l309.23,87.61Z"/><path class="cls-24" d="M868.34,1549.71c618.42-213,2064.72-188,2064.72-188l-4.21-88.33c-428.72,6.34-867,20.12-1059,49.15L1368,1400.75c-54.09,8.42-283.26,43-348.5,63.93C961,1483.49,886.56,1523.34,868.34,1549.71Z"/><path class="cls-36" d="M3933.55,2802.73,4205,1434.14c7.94-40-18.35-78.86-58.71-86.74l-824.54-160.84c-40.37-7.87-79.53,18.2-87.47,58.23L2962.83,2613.38c-7.94,40,18.35,78.86,58.71,86.74L3846.08,2861C3886.45,2868.83,3925.61,2842.76,3933.55,2802.73Z"/><path class="cls-37" d="M3531.52,2669.83l251.92-1270.26a27.92,27.92,0,0,0-22.19-32.78l-442.68-86.36a28.15,28.15,0,0,0-33.06,22L3033.59,2572.7a27.93,27.93,0,0,0,22.19,32.78l442.68,86.35A28.14,28.14,0,0,0,3531.52,2669.83Z"/><path class="cls-12" d="M3982.51,2339.82l90.43-455.93a19.19,19.19,0,0,0-15.24-22.52l-291-56.76a19.33,19.33,0,0,0-22.7,15.11l-90.42,455.94a19.18,19.18,0,0,0,15.23,22.51l291,56.76A19.32,19.32,0,0,0,3982.51,2339.82Z"/><path class="cls-4" d="M3343.33,1382.31l10.83-54.62a14.05,14.05,0,0,0-11.16-16.5l-18.3-3.57a14.16,14.16,0,0,0-16.64,11.08l-10.83,54.62a14.06,14.06,0,0,0,11.17,16.5l18.29,3.57A14.16,14.16,0,0,0,3343.33,1382.31Z"/><path class="cls-4" d="M3325.06,1474.42l10.84-54.62a14.06,14.06,0,0,0-11.17-16.5l-18.3-3.57a14.16,14.16,0,0,0-16.64,11.08L3279,1465.43a14.06,14.06,0,0,0,11.17,16.5l18.3,3.57A14.15,14.15,0,0,0,3325.06,1474.42Z"/><path class="cls-4" d="M3306.8,1566.53l10.83-54.62a14.05,14.05,0,0,0-11.17-16.5l-18.3-3.57a14.15,14.15,0,0,0-16.63,11.07l-10.84,54.63a14.06,14.06,0,0,0,11.17,16.5l18.3,3.57A14.18,14.18,0,0,0,3306.8,1566.53Z"/><path class="cls-4" d="M3288.53,1658.64l10.83-54.62a14.05,14.05,0,0,0-11.17-16.5L3269.9,1584a14.16,14.16,0,0,0-16.64,11.07l-10.84,54.62a14.07,14.07,0,0,0,11.17,16.51l18.3,3.56A14.16,14.16,0,0,0,3288.53,1658.64Z"/><path class="cls-4" d="M3270.26,1750.75l10.83-54.62a14.06,14.06,0,0,0-11.16-16.51l-18.3-3.57a14.18,14.18,0,0,0-16.64,11.08l-10.83,54.62a14.05,14.05,0,0,0,11.17,16.5l18.29,3.57A14.16,14.16,0,0,0,3270.26,1750.75Z"/><path class="cls-4" d="M3252,1842.86l10.84-54.63a14.06,14.06,0,0,0-11.17-16.5l-18.3-3.57a14.17,14.17,0,0,0-16.64,11.08l-10.83,54.62a14.06,14.06,0,0,0,11.17,16.5l18.3,3.57A14.15,14.15,0,0,0,3252,1842.86Z"/><path class="cls-4" d="M3233.73,1935l10.83-54.62a14.06,14.06,0,0,0-11.17-16.5l-18.3-3.57a14.15,14.15,0,0,0-16.63,11.08L3187.62,1926a14.06,14.06,0,0,0,11.17,16.5l18.3,3.57A14.16,14.16,0,0,0,3233.73,1935Z"/><path class="cls-4" d="M3215.46,2027.07l10.83-54.62a14.06,14.06,0,0,0-11.17-16.5l-18.29-3.57a14.16,14.16,0,0,0-16.64,11.08l-10.84,54.62a14.07,14.07,0,0,0,11.17,16.5l18.3,3.57A14.16,14.16,0,0,0,3215.46,2027.07Z"/><path class="cls-4" d="M3197.19,2119.18l10.83-54.62a14,14,0,0,0-11.16-16.5l-18.3-3.57a14.16,14.16,0,0,0-16.64,11.08l-10.83,54.62a14.06,14.06,0,0,0,11.17,16.5l18.29,3.57A14.16,14.16,0,0,0,3197.19,2119.18Z"/><path class="cls-4" d="M3178.92,2211.29l10.84-54.62a14.06,14.06,0,0,0-11.17-16.5l-18.3-3.57a14.16,14.16,0,0,0-16.64,11.07l-10.83,54.63a14.06,14.06,0,0,0,11.17,16.5l18.3,3.57A14.17,14.17,0,0,0,3178.92,2211.29Z"/><path class="cls-4" d="M3160.66,2303.4l10.83-54.62a14.05,14.05,0,0,0-11.17-16.5l-18.3-3.57a14.15,14.15,0,0,0-16.63,11.07l-10.84,54.62a14.07,14.07,0,0,0,11.17,16.51l18.3,3.56A14.16,14.16,0,0,0,3160.66,2303.4Z"/><path class="cls-4" d="M3142.39,2395.51l10.83-54.62a14.07,14.07,0,0,0-11.17-16.51l-18.29-3.56a14.16,14.16,0,0,0-16.64,11.07l-10.84,54.62a14.06,14.06,0,0,0,11.17,16.5l18.3,3.57A14.16,14.16,0,0,0,3142.39,2395.51Z"/><path class="cls-4" d="M3124.12,2487.62,3135,2433a14.07,14.07,0,0,0-11.17-16.5l-18.3-3.57a14.18,14.18,0,0,0-16.64,11.08L3078,2478.62a14.06,14.06,0,0,0,11.17,16.5l18.29,3.57A14.16,14.16,0,0,0,3124.12,2487.62Z"/><path class="cls-4" d="M3105.85,2579.72l10.84-54.62a14.06,14.06,0,0,0-11.17-16.5l-18.3-3.57a14.16,14.16,0,0,0-16.64,11.08l-10.83,54.62a14.06,14.06,0,0,0,11.17,16.5l18.3,3.57A14.15,14.15,0,0,0,3105.85,2579.72Z"/><path class="cls-4" d="M3417.47,1403,3431,1334.6a3.15,3.15,0,0,0-2.5-3.69l-62.19-12.13a3.17,3.17,0,0,0-3.72,2.48l-13.55,68.36a3.15,3.15,0,0,0,2.49,3.69l62.19,12.13A3.17,3.17,0,0,0,3417.47,1403Z"/><path class="cls-4" d="M3469.87,1553.59l13.56-68.37a3.15,3.15,0,0,0-2.49-3.69l-62.19-12.13a3.17,3.17,0,0,0-3.72,2.48l-13.56,68.36a3.14,3.14,0,0,0,2.5,3.69l62.18,12.13A3.16,3.16,0,0,0,3469.87,1553.59Z"/><path class="cls-4" d="M3545.14,1589l13.56-68.37a3.14,3.14,0,0,0-2.5-3.68L3494,1504.77a3.17,3.17,0,0,0-3.72,2.47l-13.56,68.36a3.14,3.14,0,0,0,2.5,3.69l62.19,12.13A3.17,3.17,0,0,0,3545.14,1589Z"/><path class="cls-4" d="M3615.15,1650.8l13.56-68.37a3.14,3.14,0,0,0-2.5-3.68L3564,1566.61a3.18,3.18,0,0,0-3.72,2.48l-13.55,68.36a3.14,3.14,0,0,0,2.49,3.69l62.19,12.13A3.16,3.16,0,0,0,3615.15,1650.8Z"/><path class="cls-4" d="M3743.05,1466.27l13.48-68a3.33,3.33,0,0,0-2.65-3.91l-70.52-13.76a3.36,3.36,0,0,0-4,2.63l-13.48,68a3.34,3.34,0,0,0,2.65,3.92l70.52,13.75A3.36,3.36,0,0,0,3743.05,1466.27Z"/><path class="cls-4" d="M3725,1557.06l13.49-68a3.35,3.35,0,0,0-2.65-3.92l-70.53-13.76a3.36,3.36,0,0,0-3.94,2.63l-13.49,68a3.34,3.34,0,0,0,2.65,3.92l70.53,13.76A3.35,3.35,0,0,0,3725,1557.06Z"/><path class="cls-4" d="M3707.58,1645.1l13.48-68a3.33,3.33,0,0,0-2.65-3.92l-70.52-13.75a3.36,3.36,0,0,0-3.95,2.63l-13.48,68a3.34,3.34,0,0,0,2.65,3.92l70.52,13.75A3.36,3.36,0,0,0,3707.58,1645.1Z"/><path class="cls-4" d="M3685.58,1756.06l17.79-89.7a3.81,3.81,0,0,0-3-4.47l-69.59-13.58a3.84,3.84,0,0,0-4.5,3l-17.79,89.7a3.8,3.8,0,0,0,3,4.47l69.59,13.58A3.85,3.85,0,0,0,3685.58,1756.06Z"/><path class="cls-4" d="M3576.13,2307.89l17.79-89.7a3.8,3.8,0,0,0-3-4.47l-69.59-13.58a3.85,3.85,0,0,0-4.51,3l-17.79,89.7a3.81,3.81,0,0,0,3,4.47l69.59,13.58A3.84,3.84,0,0,0,3576.13,2307.89Z"/><path class="cls-4" d="M3558.12,2398.71l13.3-67a3.32,3.32,0,0,0-2.64-3.89L3498.22,2314a3.35,3.35,0,0,0-3.93,2.61l-13.29,67a3.32,3.32,0,0,0,2.64,3.89l70.56,13.77A3.34,3.34,0,0,0,3558.12,2398.71Z"/><path class="cls-4" d="M3598.36,2195.82l82.09-413.91a8,8,0,0,0-6.36-9.41l-61.28-12a8.07,8.07,0,0,0-9.48,6.31l-82.09,413.91a8,8,0,0,0,6.36,9.41l61.28,12A8.07,8.07,0,0,0,3598.36,2195.82Z"/><path class="cls-4" d="M3597.54,1739.57l13.56-68.36a3.15,3.15,0,0,0-2.5-3.69l-62.18-12.13a3.15,3.15,0,0,0-3.72,2.48l-13.56,68.36a3.15,3.15,0,0,0,2.5,3.69l62.18,12.13A3.17,3.17,0,0,0,3597.54,1739.57Z"/><path class="cls-4" d="M3579.94,1828.35l13.55-68.37a3.13,3.13,0,0,0-2.49-3.68l-62.19-12.14a3.17,3.17,0,0,0-3.72,2.48L3511.53,1815a3.14,3.14,0,0,0,2.5,3.69l62.19,12.13A3.17,3.17,0,0,0,3579.94,1828.35Z"/><path class="cls-4" d="M3562.33,1917.12l13.56-68.36a3.15,3.15,0,0,0-2.5-3.69l-62.19-12.13a3.16,3.16,0,0,0-3.72,2.48l-13.55,68.36a3.15,3.15,0,0,0,2.49,3.69l62.19,12.13A3.17,3.17,0,0,0,3562.33,1917.12Z"/><path class="cls-4" d="M3544.72,2005.9l13.56-68.37a3.13,3.13,0,0,0-2.5-3.68l-62.18-12.14a3.17,3.17,0,0,0-3.72,2.48l-13.56,68.36a3.14,3.14,0,0,0,2.5,3.69l62.18,12.13A3.16,3.16,0,0,0,3544.72,2005.9Z"/><path class="cls-4" d="M3527.12,2094.67l13.55-68.36a3.14,3.14,0,0,0-2.49-3.69L3476,2010.49a3.16,3.16,0,0,0-3.72,2.48l-13.56,68.36a3.15,3.15,0,0,0,2.5,3.69l62.19,12.13A3.18,3.18,0,0,0,3527.12,2094.67Z"/><path class="cls-4" d="M3509.51,2183.45l13.56-68.37a3.13,3.13,0,0,0-2.5-3.68l-62.19-12.14a3.16,3.16,0,0,0-3.71,2.48l-13.56,68.36a3.14,3.14,0,0,0,2.49,3.69l62.19,12.13A3.16,3.16,0,0,0,3509.51,2183.45Z"/><path class="cls-4" d="M3491.9,2272.22l13.56-68.36a3.14,3.14,0,0,0-2.49-3.69L3440.78,2188a3.16,3.16,0,0,0-3.72,2.47l-13.56,68.37a3.15,3.15,0,0,0,2.5,3.69l62.18,12.13A3.17,3.17,0,0,0,3491.9,2272.22Z"/><path class="cls-4" d="M3474.3,2361l13.56-68.37a3.14,3.14,0,0,0-2.5-3.68l-62.19-12.14a3.18,3.18,0,0,0-3.72,2.48l-13.56,68.36a3.14,3.14,0,0,0,2.5,3.69l62.19,12.13A3.17,3.17,0,0,0,3474.3,2361Z"/><path class="cls-4" d="M3543.4,2479.09l10.31-52a12.2,12.2,0,0,0-9.69-14.32l-15.61-3a12.29,12.29,0,0,0-14.44,9.61l-10.3,52a12.19,12.19,0,0,0,9.69,14.32l15.61,3A12.28,12.28,0,0,0,3543.4,2479.09Z"/><path class="cls-4" d="M3525.74,2568.14l10.31-52a12.2,12.2,0,0,0-9.69-14.32l-15.61-3a12.29,12.29,0,0,0-14.44,9.61l-10.3,52a12.18,12.18,0,0,0,9.69,14.31l15.6,3.05A12.29,12.29,0,0,0,3525.74,2568.14Z"/><path class="cls-4" d="M3481.2,2559.45l10.31-52a12.2,12.2,0,0,0-9.69-14.32l-15.61-3a12.29,12.29,0,0,0-14.44,9.61l-10.3,52a12.19,12.19,0,0,0,9.69,14.32l15.61,3A12.28,12.28,0,0,0,3481.2,2559.45Z"/><path class="cls-4" d="M3508.08,2657.19l10.31-52a12.2,12.2,0,0,0-9.69-14.32l-15.61-3a12.29,12.29,0,0,0-14.44,9.61l-10.3,52a12.18,12.18,0,0,0,9.68,14.31l15.61,3.05A12.29,12.29,0,0,0,3508.08,2657.19Z"/><path class="cls-4" d="M3527.37,1678.55l13.56-68.37a3.15,3.15,0,0,0-2.5-3.69l-62.19-12.13a3.18,3.18,0,0,0-3.72,2.48L3459,1665.2a3.14,3.14,0,0,0,2.49,3.69l62.19,12.13A3.16,3.16,0,0,0,3527.37,1678.55Z"/><path class="cls-4" d="M3509.6,1768.14l13.56-68.36a3.15,3.15,0,0,0-2.5-3.69L3458.47,1684a3.16,3.16,0,0,0-3.72,2.48l-13.55,68.36a3.15,3.15,0,0,0,2.49,3.69l62.19,12.13A3.17,3.17,0,0,0,3509.6,1768.14Z"/><path class="cls-4" d="M3491.83,1857.74l13.56-68.36a3.14,3.14,0,0,0-2.5-3.69l-62.19-12.13A3.17,3.17,0,0,0,3437,1776l-13.55,68.37a3.13,3.13,0,0,0,2.49,3.68l62.19,12.13A3.16,3.16,0,0,0,3491.83,1857.74Z"/><path class="cls-4" d="M3474.17,1946.79l13.56-68.37a3.14,3.14,0,0,0-2.5-3.68L3423,1862.61a3.17,3.17,0,0,0-3.72,2.47l-13.55,68.36a3.14,3.14,0,0,0,2.49,3.69l62.19,12.13A3.16,3.16,0,0,0,3474.17,1946.79Z"/><path class="cls-4" d="M3456.4,2036.38,3470,1968a3.15,3.15,0,0,0-2.5-3.69l-62.19-12.13a3.18,3.18,0,0,0-3.72,2.48L3388,2023a3.15,3.15,0,0,0,2.49,3.69l62.19,12.13A3.16,3.16,0,0,0,3456.4,2036.38Z"/><path class="cls-4" d="M3439.39,2122.15l13.56-68.37a3.15,3.15,0,0,0-2.5-3.69L3388.26,2038a3.16,3.16,0,0,0-3.71,2.48L3371,2108.8a3.14,3.14,0,0,0,2.49,3.69l62.19,12.13A3.16,3.16,0,0,0,3439.39,2122.15Z"/><path class="cls-4" d="M3421.78,2210.92l13.56-68.36a3.14,3.14,0,0,0-2.49-3.69l-62.19-12.13a3.16,3.16,0,0,0-3.72,2.47l-13.56,68.37a3.15,3.15,0,0,0,2.5,3.69l62.19,12.13A3.16,3.16,0,0,0,3421.78,2210.92Z"/><path class="cls-4" d="M3404.18,2299.7l13.56-68.37a3.15,3.15,0,0,0-2.5-3.69l-62.19-12.13a3.18,3.18,0,0,0-3.72,2.48l-13.56,68.36a3.16,3.16,0,0,0,2.5,3.69l62.19,12.13A3.16,3.16,0,0,0,3404.18,2299.7Z"/><path class="cls-4" d="M3386.68,2387.92l13.56-68.36a3.15,3.15,0,0,0-2.5-3.69l-62.19-12.13a3.16,3.16,0,0,0-3.71,2.48l-13.56,68.36a3.15,3.15,0,0,0,2.49,3.69L3383,2390.4A3.17,3.17,0,0,0,3386.68,2387.92Z"/><path class="cls-4" d="M3369.18,2476.15l13.56-68.36a3.14,3.14,0,0,0-2.5-3.69L3318.06,2392a3.16,3.16,0,0,0-3.72,2.47l-13.56,68.37a3.13,3.13,0,0,0,2.5,3.68l62.18,12.14A3.17,3.17,0,0,0,3369.18,2476.15Z"/><path class="cls-4" d="M3456.86,2448.9l13.56-68.36a3.15,3.15,0,0,0-2.5-3.69l-62.18-12.13a3.17,3.17,0,0,0-3.72,2.48l-13.56,68.36a3.15,3.15,0,0,0,2.5,3.69l62.18,12.13A3.16,3.16,0,0,0,3456.86,2448.9Z"/><path class="cls-4" d="M3338.18,2632.46l26.18-132a4.3,4.3,0,0,0-3.42-5.06l-59.87-11.68a4.35,4.35,0,0,0-5.11,3.4l-26.18,132a4.32,4.32,0,0,0,3.43,5.07l59.87,11.68A4.35,4.35,0,0,0,3338.18,2632.46Z"/><path class="cls-4" d="M3417.52,2647.26l35.11-177a5,5,0,0,0-4-5.83L3390.11,2453a5,5,0,0,0-5.88,3.92l-35.11,177a5,5,0,0,0,4,5.84l58.57,11.42A5,5,0,0,0,3417.52,2647.26Z"/><path class="cls-4" d="M3562.76,1500.1l26.46-133.43a4.34,4.34,0,0,0-3.45-5.09L3526,1349.91a4.37,4.37,0,0,0-5.13,3.42l-26.46,133.42a4.33,4.33,0,0,0,3.44,5.09l59.83,11.67A4.36,4.36,0,0,0,3562.76,1500.1Z"/><path class="cls-4" d="M3633,1560.92l35.62-179.6a5,5,0,0,0-4-5.88L3606.12,1364a5.06,5.06,0,0,0-5.93,4l-35.62,179.6a5,5,0,0,0,4,5.88l58.49,11.41A5.06,5.06,0,0,0,3633,1560.92Z"/><path class="cls-4" d="M3452.19,1642.73l13.56-68.37a3.15,3.15,0,0,0-2.49-3.69l-62.19-12.13a3.17,3.17,0,0,0-3.72,2.48l-13.56,68.36a3.14,3.14,0,0,0,2.5,3.69l62.19,12.13A3.15,3.15,0,0,0,3452.19,1642.73Z"/><path class="cls-4" d="M3434.62,1731.32l13.56-68.36a3.14,3.14,0,0,0-2.49-3.69l-62.19-12.13a3.16,3.16,0,0,0-3.72,2.47L3366.22,1718a3.13,3.13,0,0,0,2.5,3.68l62.19,12.13A3.15,3.15,0,0,0,3434.62,1731.32Z"/><path class="cls-4" d="M3417,1820.46l13.55-68.36a3.14,3.14,0,0,0-2.49-3.69l-62.19-12.13a3.16,3.16,0,0,0-3.72,2.47l-13.56,68.37a3.14,3.14,0,0,0,2.5,3.68l62.19,12.13A3.17,3.17,0,0,0,3417,1820.46Z"/><path class="cls-4" d="M3399.27,1909.6l13.56-68.36a3.14,3.14,0,0,0-2.5-3.69l-62.19-12.13a3.16,3.16,0,0,0-3.72,2.47l-13.56,68.37a3.14,3.14,0,0,0,2.5,3.68l62.19,12.13A3.17,3.17,0,0,0,3399.27,1909.6Z"/><path class="cls-4" d="M3381.7,1998.19l13.56-68.36a3.15,3.15,0,0,0-2.5-3.69L3330.57,1914a3.16,3.16,0,0,0-3.72,2.47l-13.56,68.37a3.15,3.15,0,0,0,2.5,3.69l62.19,12.13A3.18,3.18,0,0,0,3381.7,1998.19Z"/><path class="cls-4" d="M3364.53,2084.77l13.55-68.36a3.15,3.15,0,0,0-2.49-3.69l-62.19-12.13a3.17,3.17,0,0,0-3.72,2.48l-13.56,68.36a3.15,3.15,0,0,0,2.5,3.69l62.19,12.13A3.17,3.17,0,0,0,3364.53,2084.77Z"/><path class="cls-4" d="M3346.7,2174.65l13.56-68.37a3.15,3.15,0,0,0-2.5-3.69l-62.18-12.13a3.17,3.17,0,0,0-3.72,2.48l-13.56,68.36a3.14,3.14,0,0,0,2.5,3.69l62.18,12.13A3.16,3.16,0,0,0,3346.7,2174.65Z"/><path class="cls-4" d="M3329.1,2263.42l13.55-68.36a3.14,3.14,0,0,0-2.49-3.69L3278,2179.24a3.16,3.16,0,0,0-3.72,2.47l-13.56,68.37a3.15,3.15,0,0,0,2.5,3.69l62.19,12.13A3.18,3.18,0,0,0,3329.1,2263.42Z"/><path class="cls-4" d="M3311.78,2350.73l13.56-68.36a3.15,3.15,0,0,0-2.5-3.69l-62.19-12.13a3.18,3.18,0,0,0-3.72,2.48l-13.55,68.36a3.15,3.15,0,0,0,2.49,3.69l62.19,12.13A3.17,3.17,0,0,0,3311.78,2350.73Z"/><path class="cls-4" d="M3293.74,2441.7l13.56-68.36a3.15,3.15,0,0,0-2.5-3.69l-62.19-12.13a3.17,3.17,0,0,0-3.72,2.47l-13.56,68.37a3.15,3.15,0,0,0,2.5,3.69l62.19,12.13A3.17,3.17,0,0,0,3293.74,2441.7Z"/><path class="cls-4" d="M3276.49,2528.65l13.56-68.36a3.14,3.14,0,0,0-2.49-3.69l-62.19-12.13a3.16,3.16,0,0,0-3.72,2.47l-13.56,68.37a3.13,3.13,0,0,0,2.5,3.68l62.18,12.13A3.16,3.16,0,0,0,3276.49,2528.65Z"/><path class="cls-4" d="M3258.74,2618.15l13.56-68.36a3.15,3.15,0,0,0-2.5-3.69L3207.62,2534a3.17,3.17,0,0,0-3.72,2.48l-13.56,68.36a3.15,3.15,0,0,0,2.5,3.69l62.18,12.13A3.16,3.16,0,0,0,3258.74,2618.15Z"/><path class="cls-4" d="M3399.54,1493.38l13.55-68.36a3.14,3.14,0,0,0-2.49-3.69l-62.19-12.13a3.16,3.16,0,0,0-3.72,2.47L3331.13,1480a3.15,3.15,0,0,0,2.5,3.69l62.19,12.13A3.18,3.18,0,0,0,3399.54,1493.38Z"/><path class="cls-4" d="M3382.15,1581.06l13.56-68.36a3.14,3.14,0,0,0-2.5-3.69L3331,1496.88a3.17,3.17,0,0,0-3.72,2.47l-13.56,68.37a3.14,3.14,0,0,0,2.5,3.68l62.19,12.14A3.17,3.17,0,0,0,3382.15,1581.06Z"/><path class="cls-4" d="M3364.32,1670.93l13.56-68.36a3.14,3.14,0,0,0-2.49-3.69l-62.19-12.13a3.16,3.16,0,0,0-3.72,2.47l-13.56,68.37a3.15,3.15,0,0,0,2.5,3.69l62.19,12.13A3.16,3.16,0,0,0,3364.32,1670.93Z"/><path class="cls-4" d="M3346.94,1758.56l13.56-68.36a3.15,3.15,0,0,0-2.49-3.69l-62.19-12.13a3.17,3.17,0,0,0-3.72,2.48l-13.56,68.36a3.15,3.15,0,0,0,2.5,3.69l62.19,12.13A3.16,3.16,0,0,0,3346.94,1758.56Z"/><path class="cls-4" d="M3329,1848.94l13.56-68.37a3.13,3.13,0,0,0-2.5-3.68l-62.19-12.13a3.15,3.15,0,0,0-3.71,2.47l-13.56,68.36a3.14,3.14,0,0,0,2.49,3.69l62.19,12.13A3.16,3.16,0,0,0,3329,1848.94Z"/><path class="cls-4" d="M3311.79,1935.79l13.56-68.36a3.15,3.15,0,0,0-2.49-3.69l-62.19-12.13a3.17,3.17,0,0,0-3.72,2.48l-13.56,68.36a3.15,3.15,0,0,0,2.5,3.69l62.19,12.13A3.15,3.15,0,0,0,3311.79,1935.79Z"/><path class="cls-4" d="M3293.9,2026l13.56-68.36a3.15,3.15,0,0,0-2.5-3.69l-62.19-12.13a3.17,3.17,0,0,0-3.72,2.47l-13.55,68.37a3.15,3.15,0,0,0,2.49,3.69l62.19,12.13A3.17,3.17,0,0,0,3293.9,2026Z"/><path class="cls-4" d="M3276.51,2113.71l13.56-68.36a3.14,3.14,0,0,0-2.5-3.69l-62.19-12.13a3.17,3.17,0,0,0-3.72,2.47l-13.55,68.37a3.13,3.13,0,0,0,2.49,3.68l62.19,12.14A3.17,3.17,0,0,0,3276.51,2113.71Z"/><path class="cls-4" d="M3258.65,2203.76l13.56-68.36a3.15,3.15,0,0,0-2.5-3.69l-62.19-12.13a3.16,3.16,0,0,0-3.71,2.48l-13.56,68.36a3.15,3.15,0,0,0,2.49,3.69l62.19,12.13A3.17,3.17,0,0,0,3258.65,2203.76Z"/><path class="cls-4" d="M3240.83,2293.63l13.55-68.36a3.15,3.15,0,0,0-2.49-3.69l-62.19-12.13a3.17,3.17,0,0,0-3.72,2.48l-13.56,68.36a3.15,3.15,0,0,0,2.5,3.69l62.19,12.13A3.17,3.17,0,0,0,3240.83,2293.63Z"/><path class="cls-4" d="M3223.18,2382.59l13.56-68.36a3.15,3.15,0,0,0-2.49-3.69l-62.19-12.13a3.17,3.17,0,0,0-3.72,2.48l-13.56,68.36a3.15,3.15,0,0,0,2.5,3.69l62.18,12.13A3.17,3.17,0,0,0,3223.18,2382.59Z"/><path class="cls-4" d="M3206.23,2468.08l13.56-68.36a3.14,3.14,0,0,0-2.5-3.69l-62.19-12.13a3.17,3.17,0,0,0-3.72,2.47l-13.55,68.37a3.13,3.13,0,0,0,2.49,3.68l62.19,12.13A3.16,3.16,0,0,0,3206.23,2468.08Z"/><path class="cls-4" d="M3180.82,2596.22,3201.09,2494a8.72,8.72,0,0,0-6.93-10.24l-51.14-10a8.8,8.8,0,0,0-10.33,6.88l-20.28,102.25a8.74,8.74,0,0,0,6.94,10.24l51.14,10A8.8,8.8,0,0,0,3180.82,2596.22Z"/><path class="cls-4" d="M3488.87,1457.78l20.28-102.25a8.73,8.73,0,0,0-6.93-10.25l-51.14-10a8.8,8.8,0,0,0-10.33,6.88l-20.28,102.25a8.73,8.73,0,0,0,6.94,10.24l51.13,10A8.79,8.79,0,0,0,3488.87,1457.78Z"/><path class="cls-38" d="M3001.84,2522.61,3236.59,1339a7.49,7.49,0,0,0-5.94-8.78l-14.44-2.81a7.53,7.53,0,0,0-8.85,5.89L2972.61,2516.91a7.47,7.47,0,0,0,5.94,8.77l14.44,2.82A7.54,7.54,0,0,0,3001.84,2522.61Z"/><path class="cls-36" d="M2947.78,2642.11l284.41-1434c2.61-13.18-2.44-27-12.32-33.63L2728.49,844.54c-5-3.37-11.14-.61-12.38,5.61l-382,1926.2c-1.42,7.16,3.87,12.77,10.72,11.37L2922.16,2670C2934.48,2667.53,2945,2656,2947.78,2642.11Z"/><path class="cls-38" d="M2330.85,2789,2718,840.64s-14.27,8-21.18,13.56S2678,875,2678,875L2308.57,2737.5s7.26,21.13,9.57,26.21S2330.85,2789,2330.85,2789Z"/><polygon class="cls-39" points="2890.13 2628.04 3172.45 1204.52 2733.81 925.49 2377.82 2720.47 2890.13 2628.04"/><path class="cls-12" d="M3001.83,2522.66l234.77-1183.8a7.38,7.38,0,0,0-5.86-8.67l-3.5-.68L2989.58,2527.84l3.46.67A7.49,7.49,0,0,0,3001.83,2522.66Z"/><path class="cls-17" d="M4728.56,3365.33q.18-1087.3.37-2174.6h0l-94.29,20.53c-.71,3.59-77.11,92.37-163.61,266.59-78.94,159-166.32,389.16-212.28,690.66,0,0-80.27,307.28-29.89,906Z"/><path class="cls-40" d="M4034.85,2721.83l-16.8-8.5s12.29-54-4.14-80.5c0,0-130.9-224.44-155.55-259.26,0,0-55.26-25.82-60.3,41.7,0,0-5,11.44,4.35,31.05l48,89.08-269.48-149a50.84,50.84,0,0,0-28.43-6.4c-13,1-28.82,7.18-38.6,28.65,0,0-5.63,11.56-1,28.56,4,14.62,14.78,21.33,27.25,28.3l208.58,127.66L3507.2,2465.58c-13.36-7.34-38.58-18.17-52.71-11.55-12.06,5.65-24.36,21.25-27.88,39.36,0,0-4.05,31.8,27.6,53.29l229.3,131.42-192.26-95.46c-15.39-8.07-52.9-25.25-68.36-9.67-4.14,4.17-7.39,10.9-10,17.52,0,0-14.89,21.58,10.5,48.13,4.4,4.6,18.54,13.87,24,16.92l205.31,122.09-143-72.35c-14.75-8-33.71-11.76-46.5.47a38.07,38.07,0,0,0-10,15.58s-15.18,34.36,23,56.79l255,130,59.13,26a156.2,156.2,0,0,0,49.4,12.8c11.92,1,25.33.76,38.26-2.51,0,0,25.84-5.42,29.38-11.85l21.38,12.38Z"/><path class="cls-41" d="M4031.51,2731.51l-16.81-8.5s12.3-54-4.13-80.5c0,0-130.91-224.44-155.56-259.26,0,0-55.25-25.82-60.3,41.71,0,0-5,11.43,4.36,31l48,89.08-269.49-149a50.82,50.82,0,0,0-28.43-6.4c-13,1-28.81,7.18-38.59,28.66,0,0-5.63,11.55-.95,28.55,4,14.62,14.77,21.33,27.24,28.3l208.59,127.66-241.57-127.59c-13.36-7.34-38.57-18.17-52.7-11.55-12.06,5.66-24.36,21.25-27.89,39.36,0,0-4.05,31.8,27.6,53.29l229.31,131.42-192.26-95.46c-15.39-8.07-52.91-25.25-68.37-9.67-4.14,4.17-7.39,10.9-10,17.52,0,0-14.89,21.58,10.51,48.13,4.39,4.6,18.53,13.87,24,16.92l205.31,122.09-143-72.34c-14.75-8-33.72-11.77-46.5.46a38.09,38.09,0,0,0-10,15.58s-15.18,34.36,23,56.79l255,130,59.14,26a156.13,156.13,0,0,0,49.4,12.8c11.92,1,25.32.76,38.25-2.51,0,0,25.84-5.42,29.39-11.85l21.38,12.38Z"/><polygon class="cls-4" points="3921.45 2991.39 3893.18 2975.42 4036.59 2692.08 4064.86 2708.05 3921.45 2991.39"/><path class="cls-17" d="M3915.35,2990.89l37,18.34q282,156,572.11,295.47,101.74,48.95,204.52,95.87V2975.85l-486.82-199h0l-173.44-86.7-33.55,65.21Z"/><path class="cls-4" d="M4031.08,3007.15a14.47,14.47,0,0,0-2.22,19.13,11.81,11.81,0,0,0,17.62,1.73,14.5,14.5,0,0,0,2.22-19.14A11.81,11.81,0,0,0,4031.08,3007.15Z"/><path class="cls-4" d="M4066.87,3026.86a14.49,14.49,0,0,0-2.23,19.14,11.81,11.81,0,0,0,17.62,1.72,14.49,14.49,0,0,0,2.23-19.14A11.82,11.82,0,0,0,4066.87,3026.86Z"/><ellipse class="cls-4" cx="4111.16" cy="3056.29" rx="13.63" ry="12.51" transform="translate(256.68 6430.53) rotate(-77.83)"/><path class="cls-42" d="M3590.31,2426.62l-23.62,47.61c-2,4.07-6.67,5.66-10.31,3.54L3533,2464.19s-17.9-12-7.93-39.7c0,0,9.14-22.89,31.45-23.1,0,0,8.91.62,23.15,10.17l7.6,4.15C3591,2417.7,3592.3,2422.6,3590.31,2426.62Z"/><path class="cls-42" d="M3504.78,2502l-22.6,45.57c-1.93,3.89-6.39,5.42-9.88,3.39L3450,2538s-17.13-11.49-7.59-38c0,0,8.74-21.91,30.1-22.1,0,0,8.53.59,22.16,9.73l7.27,4C3505.39,2493.48,3506.68,2498.16,3504.78,2502Z"/><path class="cls-42" d="M3475.32,2608.24l-17.82,40.08a6.15,6.15,0,0,1-8.39,3.33l-19.72-10.22s-15.17-9.15-7.91-32.31c0,0,6.75-19.18,25.14-20.25,0,0,7.37.15,19.44,7.43l6.4,3.1A6.74,6.74,0,0,1,3475.32,2608.24Z"/><path class="cls-42" d="M3514.11,2739.8,3496.68,2779a6,6,0,0,1-8.2,3.26l-19.29-10s-14.84-8.94-7.73-31.59c0,0,6.59-18.76,24.58-19.81,0,0,7.2.15,19,7.27l6.26,3A6.59,6.59,0,0,1,3514.11,2739.8Z"/><path class="cls-42" d="M3865.2,2422.94l-26,17.13c-2.22,1.46-5.25.12-6.71-3l-9.36-19.81s-6.74-16.15,6.29-28c0,0,11.28-9.34,23.78,1.61,0,0,4.8,4.79,10.16,17.64l3.12,6.28C3868,2417.86,3867.4,2421.5,3865.2,2422.94Z"/><path class="cls-40" d="M4136.49,1491l-17.81,1.48s-8.74,51.67-32.74,69.09c0,0-195.92,150.17-230.13,171.93,0,0-57.77,3-37.77-58,0,0-.24-11.8,15.05-25.67l74.27-61-290.12,34.74A48,48,0,0,1,3590,1619c-11-5.48-22.67-16.54-23.47-38.84,0,0-.76-12.13,9.49-25.38,8.82-11.38,20.67-13.44,34.12-15.11l229-37.7-257.9,25.91c-14.36,1.68-40.39,2.2-50.38-8.63-8.53-9.25-13.67-27.29-10.21-44.42,0,0,8-29.32,43.47-36.89l248.54-33.63-203.06,15.28c-16.4,1.6-55.51,3.31-63.42-15.84-2.12-5.13-2.54-12.18-2.4-18.9,0,0-5.24-24.22,26.62-38.46,5.51-2.46,21.26-5.56,27.14-6.29l224.13-34-151.53,12.54c-15.84,1.81-33.81-1.68-40.59-17a35.93,35.93,0,0,1-3.13-17.21s-.88-35.52,40.67-41.62l270.53-23.2,61.24-1.74a147.82,147.82,0,0,1,47.93,6.35c10.83,3.34,22.48,8.34,32.63,15.81,0,0,20.69,13.94,21.48,20.84l23.21-3.25Z"/><path class="cls-41" d="M4129.87,1484.92l-17.8,1.47s-8.74,51.68-32.74,69.1c0,0-195.93,150.17-230.13,171.93,0,0-57.78,3-37.78-58,0,0-.23-11.79,15-25.66l74.28-61-290.12,34.74a48.22,48.22,0,0,1-27.24-4.5c-11-5.48-22.66-16.54-23.46-38.85,0,0-.76-12.13,9.49-25.37,8.82-11.39,20.67-13.44,34.12-15.11l229-37.7-257.9,25.91c-14.37,1.67-40.39,2.2-50.38-8.63-8.53-9.25-13.67-27.29-10.21-44.42,0,0,7.95-29.32,43.47-36.9l248.54-33.63L3603,1413.55c-16.41,1.59-55.51,3.31-63.42-15.85-2.12-5.13-2.54-12.18-2.4-18.9,0,0-5.25-24.21,26.62-38.45,5.51-2.47,21.26-5.56,27.14-6.3l224.13-34-151.53,12.54c-15.84,1.8-33.81-1.69-40.59-16.95a35.85,35.85,0,0,1-3.13-17.22s-.88-35.52,40.67-41.61l270.53-23.2,61.24-1.75a147.83,147.83,0,0,1,47.93,6.36c10.82,3.34,22.48,8.33,32.63,15.8,0,0,20.69,13.94,21.47,20.84l23.22-3.24Z"/><polygon class="cls-4" points="4137.95 1214.06 4105.63 1217.4 4123.21 1534.31 4155.52 1530.97 4137.95 1214.06"/><path class="cls-17" d="M4157.25,1534.69l68.07-5.25,232.6-17.93.12-.6q17.7-.89,35.47-1.71,119.06-5.49,235.42-7.65.52-185.74,1.07-371.5h0l-335.4,49.39-264.14,20.36Z"/><path class="cls-4" d="M4222.94,1261.45a14.52,14.52,0,0,1,5.25-18.55,11.81,11.81,0,0,1,17,5,14.52,14.52,0,0,1-5.25,18.55A11.8,11.8,0,0,1,4222.94,1261.45Z"/><path class="cls-4" d="M4263.59,1256.65a14.5,14.5,0,0,1,5.25-18.55,11.79,11.79,0,0,1,17,5,14.5,14.5,0,0,1-5.25,18.55A11.8,11.8,0,0,1,4263.59,1256.65Z"/><path class="cls-4" d="M4304.72,1252.81a14.5,14.5,0,0,1,5.25-18.55,11.8,11.8,0,0,1,17,5,14.49,14.49,0,0,1-5.25,18.54A11.79,11.79,0,0,1,4304.72,1252.81Z"/><path class="cls-42" d="M3632.85,1595.23l-3.48-50.14c-.3-4.28-3.8-7.34-7.76-6.77l-25.39,3.6s-20,4.16-21.31,32c0,0-.27,23.31,19.22,31.43,0,0,8,2.63,24-.68l8.15-.93C3630.18,1603.27,3633.14,1599.46,3632.85,1595.23Z"/><path class="cls-42" d="M3585.14,1498.71l-3.33-48c-.28-4.1-3.63-7-7.42-6.49l-24.31,3.45s-19.17,4-20.39,30.6c0,0-.26,22.32,18.39,30.09,0,0,7.69,2.52,23-.65l7.8-.89A7.54,7.54,0,0,0,3585.14,1498.71Z"/><path class="cls-42" d="M3597.75,1395.11l-1.13-41.47a5.79,5.79,0,0,0-6.15-5.9l-21,1.94s-16.6,2.62-18.61,25.51c0,0-1,19.21,14.71,26.69,0,0,6.51,2.49,19.72.4l6.74-.43A6.44,6.44,0,0,0,3597.75,1395.11Z"/><path class="cls-42" d="M3679.33,1293.59l-1.11-40.56a5.66,5.66,0,0,0-6-5.77l-20.52,1.9s-16.24,2.57-18.21,24.95c0,0-1,18.79,14.39,26.1,0,0,6.37,2.44,19.29.4l6.58-.43A6.29,6.29,0,0,0,3679.33,1293.59Z"/><path class="cls-42" d="M3872.48,1696.24,3855.87,1672c-1.42-2.07-4.55-2-6.95.22l-15.37,14s-11.75,11.76-4.61,26.76c0,0,6.51,12.2,21.42,7,0,0,5.95-2.49,15.3-11.85l5-4.39C3873.07,1701.68,3873.89,1698.29,3872.48,1696.24Z"/><path class="cls-16" d="M4157.25,1534.69c14.34-2.47,37.79-4.16,68.07-5.25l232.6-17.93.12-.6,17.6-.86s9-.44,17.87-.85c12.91-.6,106.64-3.8,235.42-7.65v-95.8l-303.52,21.17a1265.05,1265.05,0,0,1-154.49,4.92c-85.3-2.48-129.14-90.56-129.14-90.56Z"/><path class="cls-16" d="M3999.27,2825s42.58-21.45,96.68-18.14,113.58,31,113.58,31l519.4,245.48V2975.85l-486.82-199h0l-173.44-86.7Z"/><path class="cls-43" d="M1618,765.7l-37.6-60c-15.05-24-42.85-34.51-69.25-26.13-55.19,17.52-148.28,57.56-207.86,139.72-21.13,29.15-19.46,70,3.82,95.38L1347,958.19S1410.6,818.89,1618,765.7Z"/><path class="cls-18" d="M1.71,1463.12c-3.55,26.41-1.32,52,4.31,75.82.17.72.33,1.42.5,2.09,19.7,80.37,112.3,135.58,186.89,155.76l30.76,9.16,7.86,2.34L744,1860.79c-97.49-198.78,57.5-325.36,57.5-325.36l-139.24-66A506,506,0,0,1,540.59,1388c-83.37-75-266.69-204.69-434.47-81.3q-6,4.47-11.69,9c-32.48,25.83-55,52.59-69.86,79.34A192,192,0,0,0,1.71,1463.12Z"/><path class="cls-43" d="M806.16,1890.44l-66.41-13.87c-26.57-5.54-46.39-28.84-49.31-58-6.1-61-7.32-168,40.84-258.29,17.08-32,53.09-46.13,84-33l54.22,20.82S775.27,1664.2,806.16,1890.44Z"/><path class="cls-43" d="M1049.4,555.31S1089,515.25,1134,478.76c31.35-25.44,91.53-66.29,91.53-66.29,5.87-4.76,8.27-12.2,5.33-16.53l-2.67-3.93c-2.93-4.33-9.67-3.09-16,.78,0,0-39.21,24-91.45,66.39-56,45.39-84.64,76.45-84.64,76.45-6.37,7-8.27,12.2-5.33,16.53l2.67,3.94C1036.33,560.43,1043.53,560.08,1049.4,555.31Z"/><path class="cls-43" d="M1014.93,506.3s39.57-40.07,84.56-76.56c31.35-25.44,91.53-66.29,91.53-66.29,5.87-4.76,8.27-12.2,5.33-16.52l-2.67-3.94c-2.93-4.33-9.67-3.08-16,.78,0,0-39.21,24-91.45,66.39-56,45.39-84.64,76.45-84.64,76.45-6.37,7-8.27,12.2-5.33,16.53l2.67,3.94C1001.86,511.41,1009.06,511.06,1014.93,506.3Z"/><path class="cls-43" d="M978.56,459s39.57-40.06,84.56-76.56c31.35-25.43,91.53-66.28,91.53-66.28,5.87-4.76,8.27-12.2,5.33-16.53l-2.67-3.93c-2.93-4.33-9.67-3.09-16,.78,0,0-39.2,24-91.45,66.39-56,45.39-84.64,76.45-84.64,76.45-6.37,7-8.26,12.2-5.33,16.53l2.67,3.94C965.49,464.1,972.69,463.74,978.56,459Z"/><path class="cls-43" d="M314.07,1644.83s11.53-56.66,29.51-113.89c12.53-39.88,40.85-110.11,40.85-110.11,2.35-7.47.36-14.88-4.42-16.47l-4.34-1.45c-4.78-1.59-9.73,3.63-12.95,10.68,0,0-19.85,43.69-40.73,110.16-22.36,71.18-29.63,113.85-29.63,113.85-1.55,9.59-.36,14.88,4.42,16.47l4.34,1.44C305.9,1657.1,311.72,1652.3,314.07,1644.83Z"/><path class="cls-43" d="M259,1627.59s11.54-56.67,29.51-113.9c12.53-39.88,40.85-110.11,40.85-110.11,2.35-7.47.36-14.88-4.42-16.47l-4.34-1.44c-4.77-1.6-9.73,3.63-12.95,10.68,0,0-19.85,43.69-40.73,110.15-22.36,71.18-29.63,113.85-29.63,113.85-1.55,9.59-.36,14.88,4.42,16.47l4.34,1.45C250.8,1639.86,256.63,1635.05,259,1627.59Z"/><path class="cls-43" d="M203.2,1612.89s11.54-56.67,29.52-113.89c12.52-39.88,40.85-110.12,40.85-110.12,2.34-7.46.35-14.87-4.42-16.47l-4.34-1.44c-4.78-1.59-9.74,3.63-12.95,10.68,0,0-19.86,43.69-40.73,110.15-22.36,71.19-29.64,113.85-29.64,113.85-1.54,9.59-.35,14.88,4.42,16.47l4.35,1.45C195,1625.16,200.86,1620.35,203.2,1612.89Z"/><path class="cls-44" d="M903.49,168.35h0C1039.66,128.81,1278.11,324,1278.11,324l-63.91-86.3C1168,172.1,1084.49,102.3,1007.32,113.9,971.07,119.34,934.08,134.79,903.49,168.35Z"/><path class="cls-44" d="M232,1708.29l-7.86-2.34Q228,1707.23,232,1708.29Z"/><path class="cls-44" d="M1.71,1463.12c-4.32,33.64.71,59.7,4.31,75.82.17.72.33,1.42.5,2.09,19.7,80.37,112.3,135.58,186.89,155.76l30.76,9.16C57.38,1651.19,95.74,1323,94.43,1315.68c-32.48,25.83-55,52.59-69.86,79.34A192,192,0,0,0,1.71,1463.12Z"/></g></g></svg>