<svg xmlns="http://www.w3.org/2000/svg" fill="none" viewBox="0 0 76 76">
  <defs/>
  <path fill="#fff" d="M45.3402 68.6645c1.0972 1.0833.9185 2.9831-.4454 3.7115-11.5355 6.2051-26.2327 4.4398-35.97284-5.3005-9.737808-9.7379-11.50537-24.4214-5.29804-35.971.72605-1.3501 2.62583-1.5287 3.71141-.4454L24.6746 47.9986l4.0663-4.0664c-.1021-.3873-.2366-.7423-.2366-1.1598 0-.9396.2786-1.858.8006-2.6393.522-.7812 1.264-1.3901 2.1321-1.7496.868-.3596 1.8232-.4537 2.7447-.2703.9215.1833 1.768.6357 2.4324 1.3001.6644.6644 1.1168 1.5109 1.3001 2.4324.1833.9215.0892 1.8767-.2703 2.7448-.3596.868-.9685 1.61-1.7497 2.132-.7813.522-1.6997.8006-2.6393.8006-.4152 0-.7725-.1322-1.1575-.2366l-4.0686 4.0687 17.3114 17.3093zm30.6562-23.6791c.0181.3237-.0298.6476-.1409.9522-.111.3046-.2829.5834-.505.8195-.2222.2361-.4901.4245-.7874.5538-.2973.1293-.6178.1967-.942.1983h-4.7668c-.6026-.0018-1.182-.2331-1.6202-.6467-.4382-.4137-.7024-.9787-.7389-1.5802-1.1134-19.2254-16.5529-34.8136-35.7641-35.85277-.6034-.03214-1.1714-.29535-1.586-.73502-.4146-.43968-.6441-1.02208-.6408-1.6264V2.37774c.0013-.32425.0686-.64483.1979-.94222.1292-.29739.3176-.565365.5537-.787597.2361-.222232.515-.39407.8197-.505048.3046-.110978.6287-.1587718.9524-.14047037C55.2566 1.27822 74.7345 20.7565 75.9964 44.9854zm-14.2518-.0441c.0221.3281-.0233.6572-.1334.9671-.1101.3098-.2825.5938-.5066.8345-.2241.2406-.4951.4327-.7964.5645-.3012.1318-.6263.2005-.9551.2018h-4.7808c-.5945-.0044-1.166-.2307-1.6024-.6344-.4364-.4038-.7062-.956-.7567-1.5484C51.188 33.895 42.102 24.7068 30.701 23.7697c-.5965-.0428-1.1547-.3099-1.5622-.7476-.4076-.4377-.6343-1.0135-.6345-1.6115v-4.7669c-.0001-.3291.0677-.6547.199-.9565.1314-.3018.3236-.5732.5645-.7974.241-.2242.5255-.3964.836-.5057.3104-.1093.6401-.1534.9683-.1297 16.3465 1.2619 29.4245 14.3402 30.6725 30.6869z"/>
</svg>
